<svg xmlns="http://www.w3.org/2000/svg" width="52" height="65" viewBox="0 0 52 65">
  <g fill="#FFFFFF" fill-rule="evenodd">
    <polygon points="26 52.54 5.506 40.96 5.506 17.82 26 6.25 26 .02 23.247 1.57 2.784 13.15 0 14.7 0 17.82 0 40.96 0 44.08 2.773 45.64 23.227 57.21 26 58.77"/>
    <polygon points="26 12.45 46.494 24.02 46.494 47.16 26 58.74 26 64.97 28.753 63.41 49.216 51.84 52 50.28 52 47.16 52 24.02 52 20.9 49.227 19.35 28.773 7.77 26 6.22"/>
    <polygon points="31.373 40.64 31.373 30.41 28.111 38.83 23.981 38.83 20.718 30.41 20.718 40.64 15.233 40.64 15.233 21.96 21.891 21.96 26.051 31.71 30.211 21.96 36.869 21.96 36.869 40.64 31.373 40.64"/>
  </g>
</svg>
