<svg xmlns="http://www.w3.org/2000/svg" width="11" height="9" viewBox="0 0 11 9">
  <path fill="#E9483E" fill-rule="evenodd" d="M581.195397,540.277943 L584.16902,543.390909 C584.346904,543.562863 584.435846,543.797077 584.435846,544.055008 C584.435846,544.312939 584.346904,544.544188 584.16902,544.719107 L581.195397,547.843932 C580.842594,548.214523 580.267437,548.214523 579.914634,547.843932 C579.561832,547.473341 579.561832,546.874465 579.914634,546.503874 L581.343634,545.009651 L574.910172,545.009651 C574.406168,545.009651 574,544.585695 574,544.060938 C574,543.53618 574.406168,543.112224 574.907207,543.112224 L581.340669,543.112224 L579.91167,541.618001 C579.558867,541.24741 579.558867,540.648534 579.91167,540.277943 C580.267437,539.907352 580.83963,539.907352 581.195397,540.277943 L581.195397,540.277943 Z" transform="translate(-574 -540)"/>
</svg>
