<svg xmlns="http://www.w3.org/2000/svg" width="48" height="48" viewBox="0 0 48 48">
  <g fill="none" fill-rule="evenodd" transform="translate(1 1)">
    <circle cx="23" cy="23" r="23" stroke="#FFFFFF"/>
    <path fill="#FFFFFF" d="M21.4544582,26.8057869 C18.5172688,26.8057869 16.1277145,24.4119444 16.1277145,21.4695141 C16.1277145,18.5270838 18.5172688,16.1332414 21.4544582,16.1332414 C24.3916475,16.1332414 26.7812018,18.5270838 26.7812018,21.4695141 C26.7812018,24.4119444 24.3916475,26.8057869 21.4544582,26.8057869 M28.2963221,21.4695141 C28.2963221,17.6890031 25.2270601,14.6133565 21.4544582,14.6133565 C17.6818563,14.6133565 14.6125942,17.6890031 14.6125942,21.4695141 C14.6125942,25.2500251 17.6818563,28.3256716 21.4544582,28.3256716 C22.6536425,28.3256716 23.8465853,27.9916305 24.9042632,27.3596157 L25.3858619,27.0718381 L29.64011,31.3866435 L31.3874058,29.619146 L27.1205316,25.2969557 L27.3902516,24.825982 C27.9830067,23.7907451 28.2963221,22.6301058 28.2963221,21.4695141"/>
  </g>
</svg>
