<svg xmlns="http://www.w3.org/2000/svg" width="48" height="48" viewBox="0 0 48 48">
  <g fill="none" fill-rule="evenodd" transform="translate(1 1)">
    <circle cx="23" cy="23" r="23" stroke="#FFFFFF"/>
    <path fill="#FFFFFF" d="M20.7887307,28.4438454 C16.5864613,28.4438454 13.1676994,25.0189484 13.1676994,20.8091807 C13.1676994,16.599413 16.5864613,13.1745161 20.7887307,13.1745161 C24.9910001,13.1745161 28.409762,16.599413 28.409762,20.8091807 C28.409762,25.0189484 24.9910001,28.4438454 20.7887307,28.4438454 M30.5774614,20.8091807 C30.5774614,15.4003617 26.1862341,11 20.7887307,11 C15.3912273,11 11,15.4003617 11,20.8091807 C11,26.2179998 15.3912273,30.6183614 20.7887307,30.6183614 C22.5044171,30.6183614 24.2111736,30.1404451 25.7244051,29.2362145 L26.4134336,28.8244879 L32.5000336,34.9977278 L34.9999091,32.4689496 L28.8952449,26.2851439 L29.2811363,25.6113166 C30.1291976,24.1301917 30.5774614,22.4696521 30.5774614,20.8091807"/>
  </g>
</svg>
