<svg xmlns="http://www.w3.org/2000/svg" width="135" height="207" viewBox="0 0 135 207">
  <g fill="none" fill-rule="evenodd">
    <path fill="#FFFFFF" d="M23.88,177.33 L23.88,156.3 L16.53,156.3 L11.94,167.28 L7.35,156.3 L0,156.3 L0,177.33 L6.06,177.33 L6.06,165.81 L9.66,175.29 L14.22,175.29 L17.82,165.81 L17.82,177.33 L23.88,177.33 Z M41.19,174.36 L42.24,177.33 L49.65,177.33 L41.1,156.3 L33.96,156.3 L25.08,177.33 L32.22,177.33 L33.3,174.36 L41.19,174.36 Z M39.48,169.38 L35.1,169.38 L37.32,163.23 L39.48,169.38 Z M64.23,177.33 L72.54,177.33 L64.59,164.76 L72.09,156.3 L64.08,156.3 L57.81,163.59 L57.81,156.3 L50.85,156.3 L50.85,177.33 L57.81,177.33 L57.81,172.38 L59.85,170.1 L64.23,177.33 Z M91.83,161.58 L91.83,156.3 L74.04,156.3 L74.04,177.33 L92.1,177.33 L92.1,172.05 L81,172.05 L81,169.44 L90.84,169.44 L90.84,164.16 L81,164.16 L81,161.58 L91.83,161.58 Z M106.83,177.33 L114.69,177.33 L110.55,170.49 C112.71,169.17 113.88,166.89 113.88,163.83 C113.88,159.03 110.61,156.3 104.91,156.3 L94.74,156.3 L94.74,177.33 L101.7,177.33 L101.7,171.87 L104.31,171.87 L106.83,177.33 Z M101.7,166.59 L101.7,161.58 L104.91,161.58 C106.41,161.58 107.28,162.48 107.28,164.04 C107.28,165.66 106.41,166.59 104.91,166.59 L101.7,166.59 Z M125.61,156 C120.15,156 116.61,158.64 116.61,162.84 C116.61,170.22 127.5,168.42 127.5,171.15 C127.5,171.9 126.84,172.23 125.82,172.23 C123.69,172.23 119.97,170.76 117.81,168.96 L115.23,174.18 C118.02,176.31 122.1,177.54 125.76,177.54 C130.5,177.54 134.61,175.47 134.61,170.79 C134.61,163.17 123.72,164.82 123.72,162.18 C123.72,161.55 124.23,161.31 125.01,161.31 C126.84,161.31 130.11,162.6 132.24,163.77 L134.76,158.49 C132.39,156.99 128.94,156 125.61,156 L125.61,156 Z M13.53,185.36 C9.48,185.36 6.84,187.19 6.84,190.01 C6.84,197.63 19.44,194.03 19.38,201.23 C19.38,203.96 16.83,205.73 12.87,205.73 C10.35,205.73 7.71,204.65 6.12,202.97 L5.7,203.39 C7.44,205.16 10.23,206.33 12.87,206.33 C17.19,206.33 19.98,204.32 19.98,201.23 C20.04,193.43 7.44,197.03 7.44,190.01 C7.44,187.55 9.84,185.96 13.53,185.96 C15.39,185.96 17.46,186.5 18.81,187.37 L19.11,186.89 C17.67,185.96 15.48,185.36 13.53,185.36 L13.53,185.36 Z M39.21,185.96 L39.21,185.36 L26.1,185.36 L26.1,206.33 L39.63,206.33 L39.63,205.73 L26.7,205.73 L26.7,195.83 L37.83,195.83 L37.83,195.23 L26.7,195.23 L26.7,185.96 L39.21,185.96 Z M58.23,199.94 L61.17,206.33 L61.86,206.33 L52.14,185.36 L51.48,185.36 L41.88,206.33 L42.6,206.33 L45.51,199.94 L58.23,199.94 Z M57.96,199.34 L45.78,199.34 L51.81,186.05 L57.96,199.34 Z M81.12,192.17 C81.12,187.85 78.21,185.36 73.11,185.36 L66,185.36 L66,206.33 L66.6,206.33 L66.6,199.13 L73.11,199.13 C73.8,199.13 74.43,199.07 75.03,199.01 L80.37,206.33 L81.12,206.33 L75.69,198.89 C79.17,198.14 81.12,195.77 81.12,192.17 L81.12,192.17 Z M66.6,198.53 L66.6,185.96 L73.11,185.96 C77.82,185.96 80.52,188.21 80.52,192.17 C80.52,196.22 77.82,198.53 73.11,198.53 L66.6,198.53 Z M96.09,185.36 C90.18,185.36 85.32,190.07 85.32,195.83 C85.32,201.59 90.18,206.33 96.09,206.33 C98.85,206.33 101.4,205.28 103.32,203.6 L102.9,203.21 C101.1,204.8 98.7,205.76 96.09,205.76 C90.48,205.76 85.89,201.29 85.89,195.83 C85.89,190.37 90.48,185.93 96.09,185.93 C98.7,185.93 101.1,186.86 102.9,188.45 L103.29,188.06 C101.37,186.38 98.85,185.36 96.09,185.36 L96.09,185.36 Z M125.1,206.33 L125.1,185.36 L124.5,185.36 L124.5,195.44 L109.41,195.44 L109.41,185.36 L108.81,185.36 L108.81,206.33 L109.41,206.33 L109.41,196.04 L124.5,196.04 L124.5,206.33 L125.1,206.33 Z"/>
    <g fill="#E9483E" transform="translate(14)">
      <polygon points="53 108.313 11.224 84.441 11.224 36.737 53 12.885 53 .041 47.388 3.237 5.674 27.109 0 30.305 0 36.737 0 84.441 0 90.873 5.653 94.089 47.347 117.941 53 121.157"/>
      <polygon points="53 25.666 94.776 49.518 94.776 97.222 53 121.095 53 133.938 58.612 130.722 100.326 106.87 106 103.654 106 97.222 106 49.518 106 43.086 100.347 39.891 58.653 16.018 53 12.823"/>
      <polygon points="63.953 83.781 63.953 62.691 57.302 80.05 48.885 80.05 42.234 62.691 42.234 83.781 31.052 83.781 31.052 45.271 44.624 45.271 53.104 65.371 61.584 45.271 75.156 45.271 75.156 83.781 63.953 83.781"/>
    </g>
  </g>
</svg>
