<svg viewBox="0 0 1440 936" xmlns="http://www.w3.org/2000/svg">
  <g fill="none" fill-rule="evenodd">
    <g stroke-linecap="square" stroke="#444" stroke-width="2.4">
      <path d="M386.314 387.232v11.99M380.317 393.227h11.994M595.402 195v7.194M591.804 198.597H599M545.45 545.208V554M541.053 549.604h8.795M228 209.787v3.997M226 211.785h3.998"/>
      <g>
        <path d="M1262.268 161.814h-11.99M1256.273 155.817v11.994M1434.5 300.902h-7.194M1430.903 297.304v7.196M1104.292 320.95h-8.792M1099.896 316.553v8.795M1439.713 3.5h-3.997M1437.715 1.5v3.998"/>
      </g>
      <g>
        <path d="M166.768 721.314h-11.99M160.773 715.317v11.994M359 930.402h-7.194M355.403 926.804V934M8.792 880.45H0M4.396 876.053v8.795M344.213 563h-3.997M342.215 561v3.998"/>
      </g>
    </g>
    <path d="M1109.994 583.948c-.36-.048-.736-.08-1.108-.08-3.04 0-5.712 1.524-7.32 3.844-30.776-21.288-61.816-42.412-93.008-63.752l-6.128-4.192c.992-1.432 1.572-3.168 1.572-5.04 0-1.912-.608-3.68-1.632-5.132 32.772-29.292 67.836-58.52 105.804-87.564 6.484-4.964 13.084-9.92 19.748-14.876 1.416 1.672 3.44 2.804 5.72 3.08-7.18 54.176-15.68 111.108-23.648 173.712m-190 289.812c-.928-.476-1.96-.804-3.048-.92 15.008-131.76 43.352-245.392 76.304-349.424.604.128 1.228.2 1.86.2 2.8 0 5.284-1.288 6.916-3.304 33.256 22.8 66.352 45.332 99.14 68.044-.744 1.304-1.172 2.804-1.172 4.404 0 2.812 1.312 5.32 3.352 6.952-75.868 88.736-135.368 180.644-183.352 274.048m-279.048 29.384c-.128-4.796-4.048-8.656-8.876-8.656-3.84 0-7.096 2.436-8.344 5.844-23.236-8.432-47.124-16.484-71.72-24.088.188-.536.324-1.092.408-1.672 136.672 4.508 245.604 13.024 354.964 9.424.016.032.016.068.032.1-85.12 12.416-168.836 16.336-266.464 19.048M301.934 662.496c1.152-1.492 1.848-3.368 1.848-5.408 0-4.116-2.8-7.56-6.596-8.576 8.392-31.352 17.016-63.432 25.524-96.68 51.04 55.484 105.368 110.396 162.388 172.608-1.564 1.604-2.524 3.788-2.524 6.204 0 4.904 3.98 8.888 8.888 8.888.764 0 1.5-.108 2.204-.288 5.284 15.484 10.788 31.18 16.564 47.196 9.16 25.4 18.988 51.58 29.576 78.86-.964.46-1.828 1.076-2.56 1.836-81.176-82.352-160.164-146.812-235.312-204.64m24.432-267.808c.012.004.02.004.032.004-1.464 56.156-3.264 107.568-4.228 156.436-8.568 33.444-17.256 65.704-25.712 97.22-.204-.04-.408-.072-.616-.096 8.604-77.56 20.66-159.148 30.524-253.564m85.464-120.856c77.336-67.476 141.196-129.568 204.528-186.076.06.064.12.124.176.188-80.636 89.516-165.084 187.664-283.02 291.552-.196-.192-.4-.376-.616-.548 28.68-34.76 54.892-69.828 78.932-105.116m555.28-63.724c-.164.664-.256 1.356-.256 2.072 0 .304.016.612.048.908-113.276 11.62-206.884 19.84-295.248 31.108-.948-3.888-4.444-6.776-8.628-6.776-.096 0-.196.012-.296.012-10.96-45.856-23.096-94.464-36.92-147.1 2.352-.776 4.268-2.508 5.296-4.736 99.42 49.752 209.144 93.844 336.004 124.512m-51.156 662.668c-2.116 0-4.052.744-5.576 1.976-52.492-81.552-106.172-150.82-160.048-214.68 1.928-1.632 3.156-4.06 3.156-6.788 0-1.54-.4-2.992-1.092-4.256 73.856-40.416 148.404-83.084 235.412-129.244 1.148 1.656 2.844 2.9 4.828 3.476-5.1 16.116-10.1 32.452-14.944 49.064-26.452 90.648-48.656 189.084-61.32 300.476-.14-.008-.276-.024-.416-.024m-365.592-5.24c14.612-14.844 28.944-29.816 43.048-44.908 49.692-53.172 96.808-107.728 145.232-162.752 1.58 1.424 3.656 2.3 5.952 2.3 1.972 0 3.784-.648 5.26-1.736 53.876 63.868 107.56 133.14 160.06 214.712-1.748 1.624-2.848 3.936-2.848 6.516 0 .524.052 1.032.14 1.524-109.32 3.64-218.192-4.816-354.724-9.276.012-.196.028-.388.028-.592 0-2.212-.812-4.236-2.148-5.788m53.12-561.516c18.172-17.856 35.996-35.528 53.72-53.008 1.204 1.048 2.692 1.772 4.332 2.052-43.728 167.384-106.476 317.892-167.476 467.08-.824-.252-1.692-.392-2.596-.392-2.264 0-4.32.852-5.892 2.244-57.072-62.312-111.444-117.312-162.532-172.924C436.03 467.604 523.022 385.108 603.482 306.02m-276.184 88.716c4.908 0 8.888-3.98 8.888-8.888 0-1.324-.296-2.58-.816-3.708 121.196-55.68 218.168-97.552 319.272-132.912.436 1.26 1.144 2.396 2.06 3.32-96.092 94.848-195.436 195.64-333.78 297.9.944-48.656 2.716-99.848 4.152-155.724.072.004.148.012.224.012m417.296 249.656c-.632 0-1.24.072-1.828.196C717.57 513.52 697.67 396.508 666.61 254.44c1.424-.628 2.648-1.62 3.56-2.856 104.268 101.66 211.872 181.596 317.388 258.484-.844 1.356-1.328 2.948-1.328 4.66 0 1.668.468 3.228 1.264 4.564-87.008 46.132-161.564 88.788-235.428 129.196-1.58-2.46-4.336-4.096-7.472-4.096m-249.888 77.976c60.952-149.272 123.692-299.824 167.448-467.216.288.032.58.048.872.048 1.068 0 2.088-.2 3.036-.544 31.024 142.052 50.916 259.048 76.12 390.08-3.736 1.056-6.476 4.476-6.476 8.548 0 .796.108 1.556.304 2.288-21.504 7.228-43.076 14.304-64.964 21.284-53.94 17.176-109.804 33.796-171.208 50.836-.852-2.432-2.736-4.384-5.132-5.324m481.036-501.3c.9 0 1.76-.136 2.572-.38 6.048 43.744 9.924 85.964 12.392 128.104 3.016 51.532 3.96 102.976 4.352 157.048-2.932.02-5.516 1.456-7.128 3.66-105.528-76.82-213.14-156.736-317.412-258.416.884-1.38 1.4-3.016 1.4-4.776 0-.488-.052-.964-.124-1.432 88.364-11.288 181.948-19.532 295.2-31.188.72 4.188 4.36 7.38 8.748 7.38M617.082 88.48c1.576 1.424 3.656 2.3 5.948 2.3.78 0 1.536-.112 2.26-.3 13.796 52.592 25.908 101.16 36.856 146.984-4.5.444-8.004 4.232-8.004 8.844 0 .784.108 1.544.3 2.268-46.692 16.332-92.512 34.04-140.232 53.876-55.62 23.116-113.864 49.12-179.116 79.12-.324-.592-.724-1.136-1.168-1.632 117.952-103.852 202.44-201.972 283.156-291.46m-73.46 775.952c-1.136 0-2.22.22-3.22.612-10.08-26.016-19.476-51.024-28.26-75.308-6.24-17.232-12.152-34.076-17.812-50.688 3.5-1.184 6.02-4.5 6.02-8.404 0-.82-.12-1.616-.328-2.368 86.332-23.944 161.68-47.048 236.176-72.084.428 1.224 1.108 2.336 1.992 3.248-62.168 70.604-122.212 140.432-188.336 207.548-1.6-1.58-3.804-2.556-6.232-2.556M1129.118 394.5c-2.016 1.628-3.304 4.12-3.304 6.912 0 1.988.656 3.816 1.76 5.296-5.86 4.356-11.68 8.716-17.408 13.084-38.868 29.62-74.696 59.444-108.156 89.332-1.5-1.852-3.744-3.08-6.264-3.256-.672-98.424-3.228-188.112-16.68-285.448 1.156-.464 2.184-1.164 3.044-2.04 53.672 65.208 102.604 121.184 147.008 176.12M982.574 217.868c1.288-1.544 2.06-3.524 2.06-5.688 0-4.912-3.976-8.888-8.892-8.888-3.984 0-7.356 2.624-8.492 6.244-126.82-30.684-236.508-74.792-335.892-124.568.356-.96.56-1.996.56-3.08 0-4.908-3.976-8.888-8.888-8.888-4.908 0-8.888 3.98-8.888 8.888 0 1.972.644 3.78 1.724 5.252-63.268 56.52-127.088 118.632-204.388 186.132-.024.02-.044.044-.064.072-24.06 35.328-50.296 70.44-79 105.24-1.448-1.02-3.212-1.624-5.116-1.624-4.908 0-8.888 3.98-8.888 8.888 0 4.364 3.148 7.988 7.3 8.74-9.9 94.456-22 176.056-30.648 253.616-.06 0-.112-.008-.172-.008-4.908 0-8.892 3.988-8.892 8.892 0 4.908 3.984 8.892 8.892 8.892 2.612 0 4.952-1.132 6.58-2.932 75.164 57.784 154.172 122.212 235.36 204.54-1.308 1.548-2.1 3.548-2.1 5.736 0 4.904 3.98 8.888 8.892 8.888 3.664 0 6.812-2.216 8.172-5.388 24.596 7.608 48.488 15.672 71.732 24.116-.22.78-.348 1.596-.348 2.436 0 4.916 3.984 8.892 8.892 8.892 4.748 0 8.616-3.724 8.864-8.412 97.756-2.664 181.544-6.564 266.732-18.984 1.288 3.328 4.508 5.684 8.288 5.684 4.908 0 8.884-3.976 8.884-8.888 0-3.22-1.72-6.04-4.288-7.596 47.952-93.396 107.436-185.28 183.272-274.008 1.436 1 3.18 1.588 5.064 1.588 4.904 0 8.88-3.984 8.88-8.892 0-4.296-3.036-7.876-7.084-8.712 7.992-62.624 16.524-119.576 23.74-173.756.096 0 .18.012.284.012 4.904 0 8.888-3.98 8.888-8.892 0-4.908-3.984-8.888-8.888-8.888-1.836 0-3.532.552-4.948 1.504-44.452-54.928-93.436-110.916-147.184-176.16" fill="#2D2D2D"/>
    <path d="M1065.272 678.472c-.228-.032-.436-.072-.664-.072-.4 0-.78.048-1.156.12l-54.08-188.916-30.756-107.44c7.288-2.08 12.884-8.136 14.304-15.676l107.728 20.38c-.136.712-.212 1.444-.212 2.196 0 5.888 4.304 10.756 9.936 11.664l-45.1 277.744zM820.592 866.52c-1.076-1.448-2.788-2.4-4.728-2.4-3.264 0-5.92 2.656-5.92 5.924 0 .536.1 1.052.236 1.552l-62.432 17.12c-.1-.68-.256-1.344-.468-1.992l304.124-192.136L820.592 866.52zm-367.688-78.476c.224-.636.372-1.308.372-2.016 0-3.268-2.648-5.916-5.916-5.916-.796 0-1.56.164-2.256.444l-39.444-95.692c.736-.344 1.376-.828 1.912-1.424l221.868 99.908c-.084.396-.132.812-.132 1.232 0 3.268 2.644 5.916 5.916 5.916 1.304 0 2.5-.44 3.476-1.148l11.44 12.008 77.24 81.1c-1.164 1.26-2.06 2.768-2.592 4.44l-271.884-98.852zM320.712 556.848l78.252 118.516c-1.04 1.068-1.688 2.524-1.688 4.14 0 3.264 2.648 5.912 5.912 5.912.444 0 .876-.06 1.292-.148l37.668 91.376-121.436-219.796zm-2.884-17.728c0-.212-.04-.408-.06-.616l227.36-249.628c1.676 1.344 3.576 2.42 5.628 3.184L405.288 673.988c-.656-.252-1.356-.4-2.1-.4-1.204 0-2.32.36-3.256.976l-30.536-46.248-55.276-83.712c2.172-.876 3.708-3 3.708-5.484zm16.996-106.492c.368.072.748.112 1.136.112 3.268 0 5.916-2.648 5.916-5.912 0-2.3-1.324-4.272-3.24-5.248l123.412-242.124-146.532 355.008c-.172-.14-.352-.264-.54-.38l19.848-101.456zm133.924-260.22c1.44 0 2.744-.536 3.772-1.396l72.316 86.576c-4.44 3.712-7.268 9.284-7.268 15.524 0 5.928 2.564 11.24 6.624 14.944l-226.76 248.972c-.232-.6-.556-1.14-.956-1.628l150.012-363.44c.696.284 1.46.448 2.26.448zm315.384-81.076c.288 1.352.82 2.616 1.532 3.752l-22.204 17.332-189.784 148.172c-3.704-4.688-9.428-7.708-15.876-7.708-4.488 0-8.62 1.476-11.976 3.948l-72.432-86.712c.784-1.004 1.268-2.252 1.268-3.624 0-.672-.136-1.308-.344-1.912l309.816-73.248zm227.196 121.988c-.204.596-.336 1.228-.336 1.892 0 2.296 1.32 4.264 3.224 5.244l-5.716 18.948-31.244 103.532c-1.36-.288-2.764-.444-4.212-.444-3.92 0-7.568 1.136-10.664 3.068L893.936 239.2 803.1 98.048c1.196-.964 2.204-2.148 2.952-3.5l205.276 118.772zm47.64 469.284l-210.752-77.412-12.14-4.464c.796-2.176 1.26-4.512 1.26-6.968 0-7-3.548-13.164-8.948-16.796L961.32 379.192c3.312 2.364 7.352 3.768 11.724 3.768 1.5 0 2.964-.176 4.36-.484l84.86 296.416c-1.584.68-2.788 2.048-3.296 3.712zM741.372 879.908L782.584 723.7l29.14-110.456c1.712.48 3.508.744 5.376.744 8.28 0 15.392-4.976 18.524-12.1l32.056 11.772 191.06 70.188c-.016.156-.048.312-.048.468 0 1.304.432 2.492 1.144 3.468l-18.98 11.992-294.044 185.776c-1.12-2.448-3.048-4.44-5.44-5.644zm75.728-306.38c-4.908 0-9.408 1.748-12.908 4.648L571.408 288.06c2.952-2.688 5.1-6.232 6.056-10.248l375.8 80.692c-.288 1.364-.444 2.772-.444 4.224 0 6.348 2.92 12.008 7.5 15.716L827.328 576.316c-3.008-1.764-6.492-2.788-10.228-2.788zM635.596 778.7l-73.36-485.856c3.064-.688 5.868-2.064 8.232-3.964l90.78 113.136L803.264 579.02c-3.928 3.688-6.4 8.92-6.4 14.74 0 5.408 2.144 10.312 5.604 13.948L741.1 672.956 639.712 780.768c-1.008-1.188-2.46-1.96-4.116-2.068zm160.096-678.036c2.36 0 4.548-.7 6.4-1.888l159.252 247.468c-3.728 2.652-6.508 6.532-7.768 11.052l-349.008-74.94-26.852-5.764c.2-1.132.32-2.292.32-3.48 0-4.288-1.34-8.252-3.612-11.524L715.58 151.38l70.792-55.272c2.164 2.768 5.532 4.556 9.32 4.556zM406.408 674.552l145.52-382.08c1.856.564 3.832.872 5.872.872 1.096 0 2.16-.108 3.208-.276l73.336 485.684c-2.016.304-3.696 1.612-4.504 3.408l-221.532-99.752c.492-.856.796-1.844.796-2.904 0-2.08-1.076-3.9-2.696-4.952zM736.06 878.636c-2.984 0-5.708 1.116-7.796 2.952l-21.26-22.328-67.388-70.756c.936-1.048 1.52-2.408 1.52-3.924 0-1-.268-1.928-.704-2.756l162.924-173.252c2.048 1.9 4.48 3.384 7.18 4.308l-70.32 266.524c-1.296-.488-2.688-.768-4.156-.768zm370.648-500.016c-2.748 1.468-4.852 3.992-5.764 7.036l-107.836-20.404c.1-.828.172-1.668.172-2.524 0-9.3-6.272-17.112-14.82-19.484l36.92-122.34c.492.132.992.224 1.524.224.604 0 1.172-.116 1.72-.284l88.084 157.776zm5.556 22.276c6.54 0 11.836-5.296 11.836-11.832 0-6.532-5.296-11.828-11.836-11.828-1.564 0-3.056.308-4.42.86l-88.072-157.74c1.812-1.016 3.048-2.924 3.048-5.144 0-3.268-2.648-5.916-5.916-5.916-2.156 0-4.024 1.164-5.056 2.888L806.6 93.424c.592-1.412.92-2.964.92-4.592C807.52 82.3 802.224 77 795.692 77c-6.536 0-11.836 5.3-11.836 11.832 0 .428.032.852.072 1.268L473.78 163.428c-1.036-1.7-2.892-2.852-5.032-2.852-3.272 0-5.92 2.652-5.92 5.916 0 1.82.84 3.424 2.128 4.512L337.464 421.128c-.48-.128-.98-.216-1.504-.216-3.268 0-5.916 2.648-5.916 5.916 0 2.436 1.476 4.528 3.584 5.432l-19.816 101.288c-.6-.204-1.228-.34-1.896-.34-3.268 0-5.916 2.648-5.916 5.912 0 3.272 2.648 5.92 5.916 5.92.276 0 .54-.044.808-.084l130.74 236.648c-1.228 1.088-2.016 2.656-2.016 4.424 0 3.264 2.648 5.912 5.912 5.912 2.108 0 3.948-1.108 4.996-2.772l272.12 98.936c-.156.768-.244 1.556-.244 2.368 0 6.532 5.296 11.828 11.828 11.828 6.54 0 11.836-5.296 11.836-11.828 0-.172-.024-.336-.024-.5l62.768-17.212c.992 1.892 2.944 3.196 5.224 3.196 3.268 0 5.916-2.648 5.916-5.912 0-.876-.204-1.704-.548-2.456l239.776-178.6c1 .764 2.24 1.24 3.6 1.24 3.264 0 5.912-2.648 5.912-5.912 0-2.6-1.692-4.788-4.028-5.58l45.124-277.872c.22.012.428.032.648.032z" fill="#363636"/>
  </g>
</svg>