<svg viewBox="0 0 145 117" xmlns="http://www.w3.org/2000/svg">
  <g stroke-width="7" stroke="#DF473F" fill="none" fill-rule="evenodd">
    <path d="M90.33 90.824h33.54c9.25 0 16.75-7.425 16.75-16.583 0-9.158-7.5-16.583-16.75-16.583-.487 0-.965.032-1.44.072.814-3.31 1.256-6.76 1.256-10.318C123.686 23.436 104.053 4 79.836 4c-18.177 0-33.77 10.95-40.42 26.548-1.56-.242-3.157-.37-4.787-.37C17.712 30.177 4 43.752 4 60.5c0 16.748 13.713 30.324 30.63 30.324h22.856"/>
    <path stroke-linecap="round" stroke-linejoin="round" d="M102.53 51.72l-9.187-2.333 4.83-8.08-7.55-7.475-8.16 4.782-2.356-9.094H69.43l-2.357 9.094-8.16-4.782-7.55 7.476 4.83 8.08-9.188 2.33V62.29l9.187 2.332-4.83 8.08 7.55 7.475 8.16-4.783 2.357 9.095h10.677l2.355-9.096 8.16 4.783 7.55-7.476-4.83-8.078 9.188-2.332z"/>
    <path stroke-linecap="round" stroke-linejoin="round" d="M79.753 65.554h-9.97l-4.987-8.55 4.986-8.55h9.97l4.987 8.55"/>
    <path d="M74.768 87.682v11.822M68.135 112.912H81.4V99.78H68.136zM81.4 106.345h31.807M36.328 106.345h31.807" stroke-linecap="round"/>
  </g>
</svg>