<svg viewBox="0 0 106 22" xmlns="http://www.w3.org/2000/svg">
  <g fill="#FFF" fill-rule="evenodd">
    <path d="M95.148 0l-3.552 3.618 7.08 7.21-7.08 7.21 3.552 3.62 10.632-10.83"/>
    <path d="M80.31 13.387h21.918V8.27H80.31m-9.978 5.117h5.023V8.27h-5.023v5.117zm-10.048 0h5.024V8.27h-5.024v5.117zm-10.047 0h5.024V8.27H50.24v5.117zm-10.047 0h5.023V8.27H40.19v5.117zm-10.048 0h5.024V8.27h-5.024v5.117zm-10.047 0h5.024V8.27h-5.026v5.117zm-10.048 0h5.024V8.27H10.05v5.117zM0 13.387h5.024V8.27H0v5.117z"/>
  </g>
</svg>