<svg viewBox="0 0 111 93" xmlns="http://www.w3.org/2000/svg">
  <g stroke-width="5" stroke="#DF473F" fill="none" fill-rule="evenodd">
    <path d="M26.63 45.806l29.446-20.13M56.076 45.806L26.63 25.676M19.162 26.71h7.29v-7.297h-7.29zM56.254 26.71h7.29v-7.297h-7.29zM19.162 52.067h7.29V44.77h-7.29zM56.254 52.067h7.29V44.77h-7.29zM59.9 44.626v-17.97M22.807 44.825v-18.17M26.54 23.062h29.625M26.54 48.42h29.625"/>
    <path d="M3 68.48h105V3H3zM76.35 90.03h-41.7l5.025-21.55h31.65zM23.598 90.03h63.804M81.373 68.48V3M81.373 26.71H108"/>
  </g>
</svg>