<svg viewBox="0 0 56 55" xmlns="http://www.w3.org/2000/svg">
  <g stroke-width="6.447" stroke="#DF473F" fill="none" fill-rule="evenodd">
    <path d="M9.38 33.668l11.828-12.48V4"/>
    <path d="M38.416 21.19C38.416 11.695 30.712 4 21.208 4c-5.63 0-10.627 2.7-13.766 6.876C5.282 13.75 4 17.32 4 21.19c0 4.915 2.07 9.345 5.38 12.478 3.084 2.918 7.245 4.71 11.828 4.71"/>
    <path d="M44.54 34.896c0 5.14-4.17 9.305-9.314 9.305s-9.315-4.164-9.315-9.303c0-5.14 4.173-9.306 9.317-9.306 5.145 0 9.315 4.168 9.315 9.307zm9.135 16.92L42.088 41.187M21.208 21.19H4"/>
  </g>
</svg>