<svg viewBox="0 0 50 50" xmlns="http://www.w3.org/2000/svg">
  <g fill="#DF473F" fill-rule="evenodd">
    <path d="M43.658 0l.006 5.413 5.374-.008L49.032 0M14.55 0v5.405h5.386L19.922 0M7.27 0v5.405h5.388L12.645 0M36.38 0v5.405h5.388L41.755 0M29.103 0v5.405h5.388L34.48 0M21.825 0v5.405h5.388L27.2 0M5.374 0L0 .007v5.406l5.38-.008M0 7.325v5.407h5.374v-5.42M0 14.647v5.405h5.374v-5.42m23.73 29.288l.012 5.405h5.374V43.92m1.89 0l.013 5.405h5.374V43.92m1.89 0l.007 5.405h2.687l2.69-.008v-5.405m-5.376-29.28v5.42l5.374-.014v-5.405m-5.374 7.32v5.418l5.374-.01v-5.406m-5.374 7.318v5.42l5.374-.014v-5.406m-5.374-21.96v5.42l5.374-.014V7.313m-5.374 29.28v5.418L49.038 42v-5.404"/>
    <path d="M25.54 7.428v5.405h6.94l-9.073 9.126H5.374v-.008l-2.687.006H0v27.367h27.214V43.92h-.007V25.78l9.074-9.126v6.98h5.375V7.43H25.54zM5.373 43.912V27.365H21.83V43.92H5.376v-.008z"/>
  </g>
</svg>