<svg viewBox="0 0 96 75" xmlns="http://www.w3.org/2000/svg">
  <g stroke="#DF473F" stroke-width="5" fill="none" fill-rule="evenodd" stroke-linecap="round" stroke-linejoin="round">
    <path d="M59.63 57.092c-.74-.404-1.522-.753-2.34-1.042-.395-.14-.793-.264-1.196-.375-.802-.222-1.618-.396-2.437-.553-2.048-.392-4.12-.683-6.094-1.382-.48-.167-1.192-.352-1.835-.634-.322-.142-.625-.308-.874-.508-.248-.2-.44-.436-.54-.716-.28-.822-.352-1.75-.398-2.646-.016-.3-.03-.593-.047-.88-.048-.904-.07-1.81-.07-2.714 0-.224.21-.54.49-.878.467-.564 1.128-1.185 1.333-1.527.315-.536.56-1.118.752-1.728.48-1.524.636-3.22.776-4.798l.086-.93c.763.214 1.275-.19 1.638-.843.12-.218.224-.463.314-.72.045-.13.088-.263.126-.397.236-.805.37-1.67.5-2.222.02-.09.042-.175.064-.248l.062-.205c.3-1.02 1.15-4.332.31-5.25-.21-.228-.524-.31-.98-.165.438-.786.68-1.706.842-2.61.054-.3.1-.6.14-.892.117-.762.216-1.542.285-2.33.173-1.97.156-3.987-.25-5.898-.082-.38-.178-.76-.292-1.13-.83-2.71-2.41-4.9-4.44-6.522-1.16-.926-2.467-1.668-3.866-2.215-1.75-.684-3.64-1.065-5.56-1.125-4.292-.147-8.594 1.248-11.624 4.14-.55.524-1.06 1.1-1.52 1.724-.688.935-1.264 1.982-1.703 3.14-.28.75-.484 1.516-.628 2.293-.215 1.166-.292 2.355-.28 3.547.013 1.192.114 2.388.254 3.567.04.358.085.726.14 1.096.057.37.124.745.207 1.114.166.738.4 1.458.75 2.102-.708-.216-1.076.114-1.24.697-.164.582-.124 1.417-.014 2.21.023.16.047.316.073.47.08.457.174.88.254 1.202.054.215.1.385.133.493.047.15.093.352.14.586.32 1.524.758 4.454 2.31 4.447.12 0 .246-.018.38-.055.046.482.094.968.148 1.453.11.972.24 1.947.43 2.908.096.48.205.956.334 1.426.087.315.198.62.33.912.26.586.598 1.13.98 1.646.194.258.396.508.607.752.106.12.198.21.277.292.078.08.143.15.194.226.104.148.15.316.14.625-.013.93-.007 1.894-.057 2.852-.024.48-.063.957-.125 1.428-.062.472-.146.936-.263 1.388-.176.68-.835 1.212-1.672 1.628-1.396.695-3.288 1.07-4.267 1.28-2.63.55-5.133.914-7.496 1.762-1.418.508-2.786 1.19-4.1 2.19-.512.385-.993.795-1.443 1.23-.45.435-.868.895-1.256 1.375-.773.962-1.423 2.01-1.945 3.123C3.532 66.505 3 68.994 3 71.578H67.998c0-6.148-3.187-11.657-8.37-14.486z"/>
    <path d="M72.276 57.622h20.488c0-4.44-2.562-7.943-6.214-9.76-.522-.26-1.066-.486-1.628-.675-.518-.17-1.155-.31-1.843-.452-1.032-.214-2.178-.436-3.204-.776-1.027-.34-1.935-.796-2.49-1.48-.278-.34-.394-.88-.427-1.478-.012-.2-.013-.405-.01-.613.02-.83.142-1.682.18-2.23.28.028.57.035.86.03.582-.01 1.178-.07 1.766-.146.295-.037.587-.078.874-.117 1.047-.156 2.07-.364 3.065-.728.46-.184.92-.366 1.354-.626.497-.3.63-.475.577-.686-.054-.212-.297-.46-.552-.9-.174-.3-.332-.6-.476-.908-.577-1.23-.92-2.53-1.118-3.868-.05-.334-.09-.672-.122-1.01-.13-1.357-.135-2.745-.1-4.13.01-.347.022-.693.036-1.038.064-1.73.158-3.443.118-5.077-.038-1.63-.22-3.318-.637-4.92-.28-1.07-.66-2.1-1.175-3.05-.773-1.424-1.84-2.667-3.297-3.584-.437-.277-.9-.52-1.385-.73-.968-.422-2.017-.714-3.1-.884-.54-.086-1.09-.14-1.64-.166-1.652-.076-3.322.114-4.847.543-.508.143-1 .312-1.47.507-3.722 1.52-5.41 4.247-6.175 7.51-.208.89-.347 1.82-.44 2.777-.558 5.74.55 12.43-1.533 17.142-.32.702-.71 1.177-.817 1.58-.11.404.063.736.868 1.152.895.468 1.865.78 2.836 1.015 1.48.364 3.014.57 4.547.624.095 0 .13.46.13 1.05v.005c.005.99-.083 2.35-.13 2.56-.036.16-.11.305-.213.438-.415.53-1.312.86-2.172 1.09-.645.173-1.27.29-1.652.4-.13.034-.273.067-.422.098-.296.064-.622.124-.945.2-.81.192-1.608.484-1.928 1.184-.047.104-.08.2-.097.288-.036.177-.014.324.05.446"/>
  </g>
</svg>