<svg viewBox="0 0 97 77" xmlns="http://www.w3.org/2000/svg">
  <g stroke-width="5" stroke="#DF473F" fill="none" fill-rule="evenodd">
    <path d="M71.96 48.534C67.67 63.254 54.177 74 38.194 74 18.756 74 3 58.106 3 38.5S18.756 3 38.193 3C57.63 3 73.387 18.894 73.387 38.5" stroke-linecap="round"/>
    <path d="M58.677 48.534c-3.692 7.655-11.477 12.93-20.484 12.93-12.573 0-22.766-10.28-22.766-22.964 0-12.683 10.193-22.965 22.766-22.965 12.574 0 22.767 10.282 22.767 22.965" stroke-linecap="round"/>
    <path d="M38.193 48.533c-5.493 0-9.946-4.492-9.946-10.033 0-5.54 4.453-10.033 9.946-10.033" stroke-linecap="round"/>
    <path d="M38.193 28.467c5.494 0 9.947 4.492 9.947 10.033"/>
    <path d="M38.193 38.5h49.774M93.916 32.5l-5.95 6 5.95 6M83.65 32.5l-5.948 6 5.95 6" stroke-linecap="round"/>
  </g>
</svg>