<svg xmlns="http://www.w3.org/2000/svg" width="73" height="67" viewBox="0 0 73 67">
  <path fill="#E14943" fill-rule="evenodd" d="M57.2622977,0.826171875 C57.2622977,29.9444934 42.1313449,39.5981245 40.6521116,51.3220881 L32.3202855,51.3220881 C30.8410521,39.5981245 15.6774255,29.9444934 15.6774255,0.826171875 L57.2622977,0.826171875 Z M35.5639055,39.5981245 C29.9618291,29.91479 27.7370385,17.522498 27.7043646,6.7668679 L22.6577434,6.7668679 C23.2666647,20.5730455 28.5687359,31.5187779 35.5639055,39.5981245 Z M40.7412221,54.2924361 L32.2282047,54.2924361 C31.6281944,57.8182392 30.3568854,62.0717775 24.5914399,62.0717775 L24.5914399,66.1738281 L48.354224,66.1738281 L48.354224,62.0717775 C42.4164983,62.0717775 41.3115289,57.8182392 40.7412221,54.2924361 Z M61.771286,49.5517607 C57.6068581,47.66856 54.021648,48.9873945 51.8087388,50.4220726 C54.021648,48.9844242 56.5702066,46.0734831 56.5464438,41.5021175 C48.8502721,44.5853388 49.7294951,48.9161062 48.3334316,51.4379316 C47.397772,53.1340004 45.3422911,52.251807 45.3422911,52.251807 L44.709607,53.2973695 C45.793784,53.8706467 47.6472812,54.2449105 49.8067242,54.2449105 C53.688969,54.2449105 58.5662805,53.0300382 61.771286,49.5517607 L61.771286,49.5517607 Z M69.0308165,37.605021 C64.9257956,37.8931447 62.7396194,40.7565602 61.6019761,42.8417445 C62.7396194,40.7565602 63.4257698,37.0733287 61.4534587,33.4613855 C56.6711984,39.1911868 59.219757,42.2476749 59.1900536,44.8407887 C59.1781722,46.1091273 57.734583,46.0794238 57.734583,46.0794238 L57.7553755,47.2794444 C58.6880647,47.1576602 67.1238531,45.1497049 69.0308165,37.605021 Z M72.1080971,26.1097741 C68.6298195,27.3751424 67.4743542,30.4850968 67.0050392,32.5702811 C67.4743542,30.4850968 67.1268234,27.0365227 64.5247986,24.401824 C61.8069302,30.5445037 64.7683671,32.5554293 65.3861995,34.8069531 C65.689175,35.9089522 64.4208364,36.606984 64.4208364,36.606984 L65.2822373,37.1386763 C65.4634286,37.0525362 72.3665173,33.1821728 72.1080971,26.1097741 L72.1080971,26.1097741 Z M71.5140275,14.8462145 C68.8318032,16.8244663 68.4931835,19.8601619 68.6209085,21.7819771 C68.4961539,19.8631323 67.447621,16.9135767 64.5337096,15.3006777 C63.7495378,21.29484 66.8179073,22.2780252 67.9258471,24.0632044 C68.4664504,24.9364867 67.9941651,26.0176934 67.9941651,26.0176934 L68.8377439,25.9612567 C68.8377439,25.9612567 68.914973,25.5840225 69.3397327,24.6483629 C70.204104,22.7354588 73.0675195,20.6859187 71.5140275,14.8462145 L71.5140275,14.8462145 Z M65.8673959,6.7668679 C65.8673959,6.7668679 65.0564909,9.68969034 65.7337302,11.9115107 C66.4584951,14.2818484 68.326844,15.9541543 68.326844,15.9541543 C68.326844,15.9541543 69.3367624,13.3610405 68.6209085,10.8065412 C67.9614912,8.45402557 65.8673959,6.7668679 65.8673959,6.7668679 L65.8673959,6.7668679 Z M28.2330866,53.2973695 L27.6004025,52.251807 C27.6004025,52.251807 25.547892,53.1340004 24.609262,51.4379316 C23.2131984,48.9161062 24.0924215,44.5853388 16.3962498,41.5021175 C16.372487,46.0734831 18.9210456,48.9873945 21.1339548,50.4220726 C18.9210456,48.9844242 15.3358355,47.66856 11.1714076,49.5517607 C14.3734428,53.0300382 19.2537245,54.2478809 23.1359694,54.2478809 C25.2954124,54.2449105 27.1459392,53.8706467 28.2330866,53.2973695 L28.2330866,53.2973695 Z M15.1843478,47.2764741 L15.2051402,46.0764535 C15.2051402,46.0764535 13.7615511,46.106157 13.7496697,44.8378184 C13.7229366,42.2447045 16.2685248,39.1911868 11.4862645,33.4584151 C9.51395342,37.0703583 10.2001038,40.7565602 11.3377471,42.8387741 C10.2001038,40.7535898 8.01095733,37.8901744 3.90890672,37.6020506 C5.81587015,45.1497049 14.2516585,47.1576602 15.1843478,47.2764741 L15.1843478,47.2764741 Z M7.66045626,37.1386763 L8.52185718,36.606984 C8.52185718,36.606984 7.25351858,35.9059819 7.55649408,34.8069531 C8.17432647,32.5554293 11.1357634,30.5445037 8.417895,24.401824 C5.81587015,27.0365227 5.46536908,30.4850968 5.93765441,32.5702811 C5.46833943,30.4850968 4.3158444,27.3751424 0.834596531,26.1097741 C0.573205906,33.1821728 7.47629468,37.0525362 7.66045626,37.1386763 Z M3.60296088,24.6513333 C4.02772064,25.5869929 4.10494969,25.9642271 4.10494969,25.9642271 L4.94852853,26.0206637 C4.94852853,26.0206637 4.47624319,24.939457 5.01684653,24.0661747 C6.12478634,22.2809956 9.19018549,21.29484 8.40898396,15.3036481 C5.48913186,16.9135767 4.44356936,19.8601619 4.31881475,21.7819771 C4.44356936,19.8601619 4.10494969,16.8214959 1.42569579,14.8462145 C-0.127796225,20.6859187 2.73561926,22.7354588 3.60296088,24.6513333 L3.60296088,24.6513333 Z M4.31881475,10.8065412 C3.60593123,13.3610405 4.6128792,15.9541543 4.6128792,15.9541543 C4.6128792,15.9541543 6.4812281,14.2818484 7.20599302,11.9115107 C7.88323236,9.68969034 7.07232735,6.7668679 7.07232735,6.7668679 C7.07232735,6.7668679 4.97823201,8.45402557 4.31881475,10.8065412 L4.31881475,10.8065412 Z"/>
</svg>
