<svg xmlns="http://www.w3.org/2000/svg" width="124" height="47" viewBox="0 0 124 47">
  <g fill="none" fill-rule="evenodd" transform="matrix(1 0 0 -1 .608 46.82)">
    <polyline fill="#F68D11" points="34.213 30.242 27.059 32.63 27.059 42.976 34.221 40.854 34.213 30.242"/>
    <polyline fill="#F68D11" points="36.078 40.854 43.241 42.976 43.216 32.637 36.078 30.242 36.078 40.854"/>
    <polyline fill="#F68D11" points="41.782 44.096 35.106 46.159 28.518 44.096 35.116 42.327 41.782 44.096"/>
    <polyline fill="#F68D11" points="52.252 30.242 45.098 32.63 45.098 42.976 52.261 40.854 52.252 30.242"/>
    <polyline fill="#F68D11" points="54.118 40.854 61.28 42.976 61.255 32.637 54.118 30.242 54.118 40.854"/>
    <polyline fill="#F68D11" points="59.821 44.096 53.146 46.159 46.557 44.096 53.155 42.327 59.821 44.096"/>
    <polyline fill="#F68D11" points="7.163 25.732 0 27.855 0 17.509 7.154 15.121 7.163 25.732"/>
    <polyline fill="#F68D11" points="9.02 25.732 16.182 27.855 16.157 17.516 9.02 15.121 9.02 25.732"/>
    <polyline fill="#F68D11" points="14.723 28.975 8.048 31.038 1.459 28.975 8.057 27.206 14.723 28.975"/>
    <polyline fill="#F68D11" points="25.193 15.121 18.039 17.509 18.039 27.855 25.202 25.732 25.193 15.121"/>
    <polyline fill="#F68D11" points="27.059 25.732 34.221 27.855 34.197 17.516 27.059 15.121 27.059 25.732"/>
    <polyline fill="#F68D11" points="32.762 28.975 26.087 31.038 19.498 28.975 26.096 27.206 32.762 28.975"/>
    <polyline fill="#F68D11" points="16.174 0 9.02 2.388 9.02 12.734 16.182 10.611 16.174 0"/>
    <polyline fill="#F68D11" points="18.039 10.611 25.202 12.734 25.177 2.394 18.039 0 18.039 10.611"/>
    <polyline fill="#F68D11" points="23.743 13.854 17.067 15.917 10.479 13.854 17.077 12.085 23.743 13.854"/>
    <path fill="#100F0D" d="M47.8543407 9.14562003L47.3280199 9.14376305C47.1348941 9.14376305 46.8887118 9.01329703 46.8282274 8.80178716L45.231491 3.17644163 43.6522633 8.78955763C43.6047777 8.96551963 43.438976 9.14376305 43.2134857 9.14376305L42.5903367 9.14376305C42.3659076 9.14376305 42.2022282 8.96313208 42.1568649 8.78592326L40.6877294 3.23116944 39.169782 8.8031401C39.1098281 9.00687719 38.8575443 9.14376305 38.6596434 9.14376305L37.9022614 9.14508946C37.740439 9.14508946 37.5900237 9.07555888 37.5093778 8.96366265 37.4547295 8.8877918 37.4396084 8.80178716 37.4648103 8.72697745L39.8099091.424762652C39.8616392.250153334 40.0128503.0742998395 40.2340961.0742998395L40.9872336.0742998395C41.1907054.0742998395 41.3689753.222588872 41.4204402.432949275L42.8638432 5.9632626 44.4345819.426627589C44.4818022.257096312 44.6338091.0742998395 44.856116.0742998395L45.5970505.0742998395C45.8031751.0742998395 45.97667.217511097 46.0276043.427354464L48.2848945 8.7235553C48.3114228 8.80345844 48.2960364 8.89224855 48.242184 8.96708479 48.1628645 9.07723016 48.0143062 9.14562003 47.8543407 9.14562003M54.3664997 5.62078267L50.3877902 5.62078267C50.4793128 6.73735743 51.2043303 7.895051 52.4325891 7.93961849 53.7396368 7.8969345 54.3375839 6.76574267 54.3664997 5.62078267zM52.4296709 9.20499029C49.7420922 9.20499029 48.518078 6.82895953 48.518078 4.62151591 48.518078 1.86651295 50.0397394.0865277789 52.3946536.0865277789 54.0799944.0865277789 55.3647584.938023602 55.9197297 2.42578187 55.9494414 2.51085802 55.9401565 2.60318965 55.893732 2.68598703 55.8372268 2.78650263 55.7300526 2.86234695 55.6032475 2.89022816L54.8572727 3.0329237C54.6569842 3.06433317 54.4275147 2.94567223 54.3516439 2.77355684 53.9892678 1.94692543 53.3287139 1.47791363 52.4997056 1.45345987 51.7020006 1.4781232 50.9695551 1.95200294 50.6339726 2.65998933 50.361262 3.23830555 50.320939 3.80837147 50.3164292 4.38804064L55.7178496 4.38989761C55.8311253 4.38989761 55.9483803 4.43974423 56.0311485 4.52360008 56.1003872 4.59313067 56.1380574 4.67953323 56.1372615 4.76606844 56.1239974 6.91217871 55.1432474 9.20499029 52.4296709 9.20499029L52.4296709 9.20499029zM62.7823271 4.60825178C62.7823271 4.09997018 62.690274 1.56195518 60.8871477 1.49698215 60.2828338 1.52009092 59.6721531 1.87532033 59.3309996 2.40049778 59.0797769 2.79769756 58.9330756 3.34680616 58.8954054 4.02619507L58.8954054 5.51944469C58.9248518 6.66337009 59.7299847 7.91868768 60.8813115 7.96728747 62.6905393 7.8958999 62.7823271 5.15685634 62.7823271 4.60825178zM61.1699391 9.28200185L61.0269517 9.28200185C60.1348061 9.28200185 59.433664 8.91142849 58.8954054 8.15184462L58.8946096 11.6517189C58.8946096 11.8482933 58.6916684 12.0273591 58.4675045 12.0273591L57.6907568 12.0273591C57.4878156 12.0273591 57.2607336 11.8666244 57.2602031 11.6517189L57.2602031.726314768C57.2609989.527870067 57.4639402.347562742 57.6878387.347562742L57.9159818.348804265C58.1313914.348804265 58.2847247.522378716 58.3364549.683620175L58.5794538 1.45480485C59.1439753.653155113 59.9942063.18227811 60.9041258.18227811L61.0433992.18227811C63.4402281.18227811 64.5130313 2.51355329 64.5130313 4.82390006 64.5130313 5.97392696 64.2294441 7.07352363 63.7352225 7.84066805 63.1640689 8.7296568 62.1809313 9.28200185 61.1699391 9.28200185L61.1699391 9.28200185zM73.0182589 4.85414229C72.5131607 5.21704898 71.9059287 5.33828316 71.2976355 5.45975609L70.1311876 5.67601452C69.2942208 5.81361664 68.8098147 6.03807231 68.8098147 6.77661926 68.8098147 7.55734616 69.6189268 7.85578916 70.3049478 7.87433242 71.1427104 7.85318939 71.7727568 7.47940611 72.0786277 6.82200913 72.1513152 6.66708405 72.3123417 6.56285449 72.4797351 6.56285449 72.5083856 6.56285449 72.5375667 6.56606441 72.5651561 6.5720598L73.2930918 6.73290068C73.4119384 6.75911061 73.5228266 6.84055239 73.5822499 6.94647976 73.6297355 7.03052131 73.6400815 7.12230911 73.6116963 7.20428145 73.1662867 8.50177899 72.0353866 9.18748163 70.3245787 9.18748163 68.7787766 9.18405949 67.1268614 8.49671209 67.1268614 6.576941 67.1268614 5.26482639 67.9513599 4.43157352 69.5791344 4.09997018L70.8848557 3.85116157C71.6016495 3.71395737 72.3346255 3.46992384 72.3346255 2.70028576 72.3346255 1.56091792 71.0087427 1.44475329 70.6079006 1.43646321 69.7085923 1.45584211 68.6904375 1.85697869 68.443194 2.70641379 68.3935861 2.89314626 68.1585457 3.02525703 67.9524211 2.98236083L67.1910598 2.82526043C67.0764577 2.80111971 66.971671 2.7266018 66.910656 2.62598805 66.8594565 2.54215342 66.8448659 2.44826988 66.8684761 2.36257031 67.2613597.953152673 68.6219945.103211671 70.5081543.0889110784L70.550069.0886001671C72.2346139.0886001671 74.0345568.809942477 74.0345568 2.83345766 74.0345568 3.65716035 73.6639569 4.3936381 73.0182589 4.85414229M80.7188843 5.61258544L76.7391136 5.61258544C76.8301056 6.7301948 77.5551231 7.88841893 78.7833819 7.93091721 80.089899 7.88945353 80.688642 6.75839434 80.7188843 5.61258544zM78.7812596 9.19732362C76.0931503 9.19732362 74.8688708 6.82118675 74.8688708 4.61384924 74.8688708 1.85905054 76.3907975.0792738896 78.745977.0792738896 80.4315831.0792738896 81.7163471.930871581 82.271849 2.41832212 82.3012954 2.50350173 82.2920105 2.59604029 82.2453207 2.67903662 82.1888155 2.77965834 82.081376 2.85552918 81.9548362 2.88287983L81.2078002 3.02557537C81.0329789 3.05396062 80.7891842 2.96349923 80.7032326 2.76589017 80.3405912 1.93977606 79.679772 1.47076426 78.8515595 1.44527325 78.0530587 1.47076426 77.3208785 1.94454319 76.9866224 2.65230939 76.7133812 3.22928594 76.672793 3.7998559 76.6688137 4.38090453L82.0697036 4.38223095C82.1821835 4.38223095 82.2986425 4.43178575 82.3814107 4.51508451 82.4509148 4.58493343 82.4885849 4.67136253 82.4877891 4.75840177 82.4753208 6.90429981 81.4953666 9.19732362 78.7812596 9.19732362L78.7812596 9.19732362zM87.5881137 9.09630398C87.4827965 9.10789683 87.3814585 9.1134943 87.2830386 9.1134943 86.3765677 9.1134943 85.6404083 8.62065216 85.1294739 7.6791109L85.1313309 8.5036625C85.130535 8.70334076 84.9313078 8.87877219 84.7050216 8.87877219L84.0304078 8.87877219C83.8091621 8.87877219 83.613914 8.7026245 83.6123223 8.50045258L83.6112612.490772939C83.6112612.289739079 83.8065092.113263232 84.0293467.113263232L84.8164404.113574143C85.0212386.113574143 85.2517692.274296975 85.2536262.490772939L85.2541568 4.5288792C85.2541568 5.19476523 85.3162329 5.69641476 85.6343068 6.28990515 86.088736 7.13528143 86.7232922 7.54999783 87.574319 7.5566299 87.7876063 7.55816854 87.9748958 7.74439697 87.9748958 7.95527016L87.9748958 8.70448148C87.9748958 8.9005519 87.8048496 9.0726673 87.5881137 9.09630398M95.8519341 9.25359008L95.2303768 9.25329827C95.0356594 9.25329827 94.7860284 9.1134943 94.7255439 8.90843079L92.710722 2.57593717 90.6531897 8.90209054C90.5924399 9.11214136 90.3422784 9.25329827 90.1464998 9.25329827L89.2588639 9.25412064C89.0959804 9.25412064 88.9384025 9.18148625 88.8577565 9.06924515 88.8036389 8.9941171 88.7887831 8.90893483 88.8155766 8.82945614L91.6315521.475954249C91.6856698.310669881 91.8291877.117511999 92.0562697.117511999L93.1303992.117511999C93.3275042.117511999 93.4890614.251707625 93.5630753.476681123L96.2944256 8.82675026C96.3217497 8.90604325 96.3071592 8.99151733 96.2533068 9.06685761 96.1721303 9.1801333 96.0148177 9.25359008 95.8519341 9.25359008M97.8940801 12.464545C97.3216001 12.464545 96.856029 11.9977271 96.856029 11.4233105 96.856029 10.8490266 97.3216001 10.3823944 97.8940801 10.3823944 98.4668254 10.3823944 98.9329271 10.8490266 98.9329271 11.4233105 98.9329271 11.9977271 98.4668254 12.464545 97.8940801 12.464545M98.3214505 9.30447129L97.4690973 9.3053202C97.2372402 9.3053202 97.0260752 9.11773882 97.0260752 8.91214475L97.0218307.407458263C97.0218307.304557769 97.0748872.202381761 97.166675.126527365 97.2507696.0576162124 97.3582091.0178236794 97.4661792.0178236794L98.3246339.0164765474 98.3251645.0164765474C98.5604702.0185490683 98.7671254.201034656 98.7671254.406938309L98.7671254 8.91214475C98.7671254 9.12116097 98.5586132 9.30447129 98.3214505 9.30447129M106.287093 3.53727911L105.57534 3.53457323C105.376643 3.53457323 105.210046 3.41519603 105.136032 3.2078511 104.876055 2.08619883 104.287127 1.50496185 103.394186 1.47926126 101.654993 1.53097016 101.519964 3.95509932 101.519964 4.69685619 101.519964 6.1760193 102.032224 7.77225165 103.462363 7.81443159 104.325593 7.78790333 104.953517 7.1689458 105.141868 6.16036762 105.177416 5.95456133 105.335524 5.79881387 105.551464 5.77175504L106.313091 5.7643006C106.540703 5.78897188 106.719239 5.96119339 106.717647 6.17477247 106.44812 7.99745011 105.185109 9.17557044 103.497115 9.17557044L103.438753 9.17400528 103.372698 9.17557044C100.917772 9.17557044 99.8187059 6.88440361 99.8187059 4.61384924 99.8187059 2.53210186 100.745338.101346203 103.358903.101346203L103.484117.101346203C105.12993.101346203 106.372249 1.25501517 106.727993 3.12556041 106.735951 3.21469539 106.705179 3.30380384 106.642041 3.37625253 106.560334 3.47013607 106.430081 3.53032871 106.287093 3.53727911M113.316553 5.61258544L109.336252 5.61258544C109.427244 6.73051314 110.152527 7.88841893 111.381582 7.93091721 112.688364 7.88945353 113.286842 6.75839434 113.316553 5.61258544zM111.378929 9.19732362C108.691085 9.19732362 107.467071 6.82118675 107.467071 4.61384924 107.467071 1.85905054 108.988997.0792738896 111.344177.0792738896 113.028987.0792738896 114.31322.93035428 114.869253 2.41800909 114.898169 2.50370865 114.888618 2.59655759 114.842194 2.67903662 114.784893 2.78040113 114.680637 2.85449458 114.551975 2.88287983L113.806 3.02557537C113.630383 3.05396062 113.387384 2.96349923 113.301432 2.76589017 112.93773 1.93977606 112.276645 1.47076426 111.448698 1.44496287 110.650463 1.47076426 109.918548 1.94454319 109.584292 2.65230939 109.310785 3.23013484 109.270197 3.80070481 109.265952 4.38090453L114.667373 4.38172691C114.780914 4.38172691 114.898169 4.43178575 114.981202 4.51590688 115.050176 4.58618026 115.087315 4.67271547 115.085989 4.75840177 115.073521 6.90429981 114.093301 9.19732362 111.378929 9.19732362L111.378929 9.19732362zM121.852554 4.85414229C121.34666 5.21736732 120.738632 5.33849538 120.1314 5.45975609L118.964952 5.67601452C118.128781 5.81361664 117.64464 6.03807231 117.64464 6.77661926 117.64464 7.7836588 118.894387 7.86780647 119.138182 7.87433242 119.97674 7.85318939 120.606786 7.47940611 120.912127 6.82169079 120.985345 6.66679224 121.146902 6.56285449 121.314561 6.56285449 121.343476 6.56285449 121.372392 6.56606441 121.400512 6.5720598L122.127917 6.73290068C122.246764 6.75911061 122.357387 6.84087073 122.41681 6.94666545 122.46403 7.03081312 122.474376 7.12230911 122.445991 7.20428145 122.001112 8.50177899 120.869947 9.18748163 119.158343 9.18748163 117.613072 9.18405949 115.961687 8.49671209 115.961687 6.576941 115.961687 5.26450805 116.78592 4.43125518 118.413429 4.09997018L119.719681 3.85116157C120.436475 3.71395737 121.169451 3.46992384 121.169451 2.70028576 121.169451 1.56091792 119.843568 1.44475329 119.442726 1.43646321 118.608943 1.45428755 117.54171 1.79863772 117.278285 2.70535266 117.230003 2.89314626 116.995228 3.02504481 116.78539 2.98236083L116.025355 2.82526043C115.910222 2.80080137 115.80517 2.72577943 115.744155 2.62495079 115.693486 2.54091189 115.678896 2.44774993 115.702771 2.36257031 116.094594.953152673 117.454963.103211671 119.341388.0889110784L119.383303.0886001671C121.068113.0886001671 122.868321.809942477 122.868321 2.83345766 122.868321 3.65769092 122.497987 4.39435436 121.852554 4.85414229M87.2023927 25.6788318L87.2023927 27.6100897C87.2034538 27.9029617 87.4257607 28.0995362 87.6926351 28.0992709L96.3448293 28.0995362C96.6209886 28.0995362 96.843826 27.8981867 96.843826 27.6122119L96.843826 25.9560522C96.8411732 25.6788318 96.6069286 25.3163496 96.1920265 24.7407127L91.7106064 18.341909C93.3733981 18.3813831 95.1338139 18.1323888 96.644864 17.2828476 96.9862828 17.0913665 97.0770095 16.8072223 97.1048642 16.5298162L97.1048642 14.4691004C97.1048642 14.1849561 96.7939529 13.8565627 96.4676552 14.0276435 93.8044825 15.4229773 90.2701215 15.5753026 87.324688 14.0114878 87.0241227 13.8509653 86.7089669 14.1742918 86.7089669 14.4584361L86.7089669 16.4165405C86.7089669 16.7289639 86.7153337 17.2656573 87.0307548 17.7436701L92.2236631 25.19233 87.7029811 25.1933646C87.4262913 25.1933646 87.2050455 25.3902574 87.2023927 25.6788318M55.6417135 13.6212305L53.008783 13.6212305C52.7586215 13.6375984 52.558333 13.826294 52.5384368 14.0669319L52.5402938 27.5771946C52.5402938 27.8475177 52.7679063 28.0634578 53.0480448 28.0634578L55.499522 28.0647842C55.7563156 28.0504589 55.9616444 27.8568026 55.9791531 27.6111508L55.9791531 25.8458803 56.0279651 25.8458803C56.6662352 27.5525233 57.8703532 28.3473102 59.4917609 28.3473102 61.1378399 28.3473102 62.1700547 27.5525233 62.9072753 25.8458803 63.5466065 27.5525233 64.9958457 28.3473102 66.5450965 28.3473102 67.6507947 28.3473102 68.853321 27.8931463 69.5905415 26.8702163 70.4259167 25.7324189 70.2537482 24.0845626 70.2537482 22.6339969L70.2521565 14.1079711C70.2521565 13.8384174 70.0248093 13.6212305 69.7449361 13.6212305L67.1159848 13.6212305C66.8512327 13.6375984 66.6429858 13.8487899 66.6429858 14.1067243L66.6429858 21.2695686C66.6429858 21.8378306 66.6915325 23.2599049 66.5689719 23.7995959 66.3718669 24.7101522 65.7818783 24.9645583 65.0213129 24.9645583 64.3817163 24.9645583 63.7179791 24.5381164 63.4476561 23.8572949 63.1775983 23.1739002 63.2025349 22.0367926 63.2025349 21.2695686L63.2025349 14.1079711C63.2025349 13.8384174 62.9751876 13.6212305 62.6947838 13.6212305L60.065302 13.6212305C59.8018763 13.6375984 59.5930989 13.8487899 59.5930989 14.1067243L59.5896502 21.2695686C59.5896502 22.7764803 59.8360978 24.9930496 57.9690384 24.9930496 56.0770424 24.9930496 56.1507909 22.8329589 56.1507909 21.2695686L56.1491993 14.1079711C56.1502604 13.8384174 55.9226479 13.6212305 55.6417135 13.6212305M104.316839 25.5906519C102.374704 25.5906519 102.252409 22.9469509 102.252409 21.2974233 102.252409 19.6488506 102.228003 16.1239072 104.292963 16.1239072 106.332722 16.1239072 106.430611 18.9668885 106.430611 20.7008556 106.430611 21.8378306 106.382064 23.2020733 106.037993 24.28249 105.742203 25.2210335 105.15301 25.5906519 104.316839 25.5906519L104.316839 25.5906519zM104.292963 28.3473102C108.199516 28.3473102 110.313023 24.9930496 110.313023 20.7301959 110.313023 16.6070134 107.97774 13.3374045 104.292963 13.3374045 100.459364 13.3374045 98.3702625 16.6925936 98.3702625 20.8716446 98.3702625 25.0790543 100.482974 28.3473102 104.292963 28.3473102L104.292963 28.3473102zM115.379922 13.6212305L112.757072 13.6212305C112.492851 13.6375984 112.284604 13.8487899 112.284604 14.1067243L112.28089 27.6230885C112.302643 27.8692708 112.521236 28.0634578 112.785457 28.0634578L115.227915 28.0647842C115.45818 28.0520506 115.647062 27.8955338 115.695343 27.6862258L115.695343 25.6189575 115.745216 25.6189575C116.481376 27.4671023 117.514121 28.3473102 119.331573 28.3473102 120.511285 28.3473102 121.666856 27.9220621 122.403546 26.7561448 123.091159 25.6762586 123.091159 23.8572949 123.091159 22.5493452L123.091159 14.0472479C123.061712 13.8076446 122.84816 13.6212305 122.588183 13.6212305L119.94809 13.6212305C119.70456 13.6370944 119.508781 13.8169826 119.479335 14.0472479L119.479335 21.3832422C119.479335 22.8614503 119.651769 25.0225756 117.832726 25.0225756 117.19419 25.0225756 116.605263 24.5951256 116.310003 23.9420793 115.940995 23.1179256 115.892183 22.2935862 115.892183 21.3832422L115.892183 14.1079711C115.887673 13.8384174 115.66006 13.6212305 115.379922 13.6212305M82.9589311 13.6554254C82.7843751 13.499678 82.5344788 13.4893054 82.3376391 13.5941716 81.4635327 14.3208074 81.3064854 14.6576899 80.8287113 15.3487777 79.3837166 13.8769895 78.3605213 13.4355326 76.4894827 13.4355326 74.2725154 13.4355326 72.5492392 14.8033035 72.5492392 17.5383944 72.5492392 19.6746361 73.7061369 21.1278015 75.3559298 21.8405365 76.7842117 22.467479 78.7791374 22.5816567 80.3055739 22.7531619L80.3055739 23.0946072C80.3055739 23.7210457 80.3546511 24.4621659 79.9848471 25.0032099 79.6657121 25.487563 79.049991 25.686525 78.5074879 25.686525 77.503393 25.686525 76.6112474 25.1717971 76.3915933 24.1054934 76.3470259 23.8687021 76.1730004 23.6334759 75.9345113 23.6220688L73.3838184 23.8984403C73.1678783 23.9469339 72.9288587 24.119182 72.9912001 24.4479733 73.5774748 27.543769 76.372493 28.4791557 78.8775572 28.4791557 80.1572808 28.4791557 81.8325409 28.1374716 82.8422067 27.1689246 84.1221956 25.9717835 83.9988392 24.3764796 83.9988392 22.6383476L83.9988392 18.5374489C83.9988392 17.3038845 84.5116306 16.7624426 84.9936492 16.0975911 85.160512 15.8578021 85.1981821 15.5736579 84.9838337 15.397802 84.446371 14.9473255 83.4910881 14.1183171 82.9660937 13.6496157L82.9589311 13.6554254 82.9589311 13.6554254zM80.3055739 20.0742314C80.3055739 19.0483303 80.3299799 18.1927937 79.8126787 17.281813 79.3940626 16.5403744 78.7287337 16.0849372 77.9899214 16.0849372 76.9813167 16.0849372 76.3905322 16.8539386 76.3905322 17.99415 76.3905322 20.2355763 78.4019054 20.6436607 80.3055739 20.6436607L80.3055739 20.0742314 80.3055739 20.0742314zM48.4525532 13.6554254C48.2785277 13.499678 48.0267745 13.4893054 47.8299347 13.5941716 46.9558283 14.3208074 46.7993116 14.6576899 46.3210069 15.3487777 44.8768081 13.8769895 43.8530822 13.4355326 41.9809824 13.4355326 39.764811 13.4355326 38.0410042 14.8033035 38.0410042 17.5383944 38.0410042 19.6746361 39.1989631 21.1278015 40.848756 21.8405365 42.2773032 22.467479 44.2719636 22.5816567 45.7984001 22.7531619L45.7984001 23.0946072C45.7984001 23.7210457 45.8480079 24.4621659 45.4782039 25.0032099 45.158273 25.487563 44.5420213 25.686525 44.00111 25.686525 42.9970151 25.686525 42.1038083 25.1717971 41.8849501 24.1054934 41.8393215 23.8687021 41.6660919 23.6334759 41.4278681 23.6220688L38.8761141 23.8984403C38.6607046 23.9469339 38.4214196 24.119182 38.4832304 24.4479733 39.0695051 27.543769 41.8647886 28.4791557 44.3695876 28.4791557 45.6509029 28.4791557 47.3248365 28.1374716 48.3347677 27.1689246 49.6152871 25.9717835 49.4916654 24.3764796 49.4916654 22.6383476L49.4916654 18.5374489C49.4916654 17.3038845 50.0047221 16.7624426 50.4854143 16.0975911 50.6530729 15.8578021 50.6910083 15.5736579 50.4771905 15.397802 49.9391972 14.9473255 48.9833838 14.1183171 48.4586547 13.6496157L48.4525532 13.6554254 48.4525532 13.6554254zM45.7984001 20.0742314C45.7984001 19.0483303 45.8225408 18.1927937 45.3063007 17.281813 44.8879499 16.5403744 44.2220904 16.0849372 43.4843393 16.0849372 42.4736124 16.0849372 41.8830931 16.8539386 41.8830931 17.99415 41.8830931 20.2355763 43.8939358 20.6436607 45.7984001 20.6436607L45.7984001 20.0742314 45.7984001 20.0742314z"/>
  </g>
</svg>
