<svg xmlns="http://www.w3.org/2000/svg" width="116" height="55" viewBox="0 0 116 55">
  <g fill="none" fill-rule="evenodd" transform="translate(.608 .562)">
    <path fill="#86BC24" d="M108.567177,18.4193391 C108.567177,16.7419726 109.928974,15.3810904 111.605426,15.3810904 C113.282793,15.3810904 114.642831,16.7419726 114.642831,18.4193391 C114.642831,20.0967056 113.282793,21.4567087 111.605426,21.4567087 C109.928974,21.4567087 108.567177,20.0967056 108.567177,18.4193391"/>
    <path fill="#0F0B0B" d="M11.6718694,10.3731633 C11.6718694,8.44876329 11.3000356,7.02106771 10.5562976,6.09095568 C9.81164536,5.16172278 8.68369552,4.69754589 7.16724369,4.69754589 L5.55408834,4.69754589 L5.55408834,16.465485 L6.78837689,16.465485 C8.47277636,16.465485 9.7070649,15.9661432 10.4930008,14.9639431 C11.2780224,13.9635012 11.6718694,12.4329483 11.6718694,10.3731633 M17.4248496,10.1727233 C17.4248496,13.6786654 16.4824299,16.3802101 14.5975904,18.2764781 C12.7127509,20.1736253 10.0630745,21.122199 6.6476469,21.122199 L0.011183321,21.122199 L0.011183321,0.113799117 L7.11097983,0.113799117 C10.4041742,0.113799117 12.9465976,0.976218678 14.7382501,2.70017868 C16.5290586,4.4250178 17.4248496,6.91469384 17.4248496,10.1727233"/>
    <polygon fill="#0F0B0B" points="35.808 21.122 41.089 21.122 41.089 .026 35.808 .026"/>
    <path fill="#0F0B0B" d="M48.5075407,13.2529097 C48.5075407,14.5979677 48.6833653,15.6239041 49.0341705,16.3289607 C49.3858197,17.0348964 49.9747617,17.3874247 50.8028954,17.3874247 C51.622238,17.3874247 52.2016151,17.0348964 52.5391983,16.3289607 C52.8767815,15.6239041 53.0446588,14.5979677 53.0446588,13.2529097 C53.0446588,11.9148846 52.874109,10.9056516 52.5321653,10.2243313 C52.1893074,9.54125283 51.6046555,9.19927402 50.7756778,9.19927402 C49.9651265,9.19927402 49.3858197,9.53949458 49.0341705,10.2164192 C48.6833653,10.894223 48.5075407,11.9060934 48.5075407,13.2529097 M58.4196162,13.2529097 C58.4196162,15.8155529 57.7479663,17.8146784 56.40115,19.2476487 C55.055248,20.6814982 53.1712525,21.3988624 50.7493041,21.3988624 C48.4266614,21.3988624 46.5778308,20.665674 45.2055551,19.199297 C43.8315212,17.73292 43.1448911,15.751377 43.1448911,13.2529097 C43.1448911,10.6981786 43.8174552,8.71311906 45.1642715,7.2977312 C46.5110175,5.88234334 48.3993734,5.17464941 50.8310274,5.17464941 C52.3334836,5.17464941 53.6627174,5.50256225 54.8143684,6.1575088 C55.9668633,6.81245536 56.856606,7.75047949 57.4816272,8.97246032 C58.1075627,10.1926829 58.4196162,11.6203785 58.4196162,13.2529097"/>
    <polygon fill="#0F0B0B" points="60.517 21.122 65.799 21.122 65.799 13.048 65.799 5.452 60.517 5.452"/>
    <polygon fill="#0F0B0B" points="60.517 3.556 65.798 3.556 65.798 .025 60.517 .025"/>
    <path fill="#0F0B0B" d="M76.4991654 17.1250944C77.2121692 17.1250944 78.0614019 16.9439951 79.0521382 16.5844338L79.0521382 20.5273C78.3400487 20.8402678 77.6631241 21.0644441 77.0196061 21.1971917 76.3760882 21.3316975 75.6208864 21.3985108 74.7567438 21.3985108 72.9835177 21.3985108 71.7053434 20.9527955 70.9202515 20.0631231 70.1387464 19.1734507 69.7466576 17.8072938 69.7466576 15.9637731L69.7466576 9.50397802 67.896983 9.50397802 67.896983 5.45297972 69.7466576 5.45297972 69.7466576 1.45121229 75.0688676.525495886 75.0688676 5.45297972 78.4385105 5.45297972 78.4385105 9.50397802 75.0688676 9.50397802 75.0688676 15.6033327C75.0688676 16.6178405 75.5461961 17.1250944 76.4991654 17.1250944M88.7231231 17.1250944C89.4361269 17.1250944 90.2853596 16.9439951 91.276096 16.5844338L91.276096 20.5273C90.5649207 20.8402678 89.8870818 21.0644441 89.2435638 21.1971917 88.5992019 21.3316975 87.8466727 21.3985108 86.9807015 21.3985108 85.2075458 21.3985108 83.9293011 20.9527955 83.1459674 20.0631231 82.3627041 19.1734507 81.9706153 17.8072938 81.9706153 15.9637731L81.9706153 9.50397802 80.1200264 9.50397802 80.1200264 5.45297972 81.9706153 5.45297972 81.9706153 1.39055281 87.291911.525495886 87.291911 5.45297972 90.6633825 5.45297972 90.6633825 9.50397802 87.291911 9.50397802 87.291911 15.6033327C87.291911 16.6178405 87.7693099 17.1250944 88.7231231 17.1250944M97.9404101 11.3438908C98.0124982 10.4858669 98.2578087 9.85729399 98.6762008 9.45553483 99.0964919 9.05465479 99.6151744 8.85421477 100.235835 8.85421477 100.91276 8.85421477 101.450783 9.07927023 101.849905 9.53289765 102.251629 9.98388769 102.46086 10.5878451 102.477599 11.3438908L97.9404101 11.3438908 97.9404101 11.3438908zM105.388339 7.02212266C104.132952 5.7913506 102.351849 5.17508545 100.047703 5.17508545 97.6256842 5.17508545 95.7619436 5.88277938 94.455567 7.29816724 93.1500343 8.71355511 92.4968812 10.744329 92.4968812 13.3904889 92.4968812 15.9531322 93.202852 17.9294004 94.6112069 19.3166564 96.0204057 20.7039123 97.9992762 21.3984194 100.547889 21.3984194 101.771628 21.3984194 102.824817 21.3149027 103.707456 21.1487485 104.584821 20.9843525 105.434054 20.6872089 106.257827 20.258197L105.446361 16.7267603C104.847714 16.9711565 104.278042 17.1592888 103.740019 17.2832451 102.962874 17.4634653 102.110125 17.5540149 101.181701 17.5540149 100.163747 17.5540149 99.3602288 17.3052232 98.7712164 16.8076396 98.1822041 16.3091769 97.8683221 15.6217028 97.8323132 14.7460964L107.272335 14.7460964 107.272335 12.3399371C107.272335 10.0252065 106.644571 8.25201559 105.388339 7.02212266L105.388339 7.02212266zM24.433991 11.3438908C24.5060791 10.4858669 24.7513895 9.85729399 25.1697817 9.45553483 25.5891585 9.05465479 26.1086849 8.85421477 26.73026 8.85421477 27.4054264 8.85421477 27.9434496 9.07927023 28.3434857 9.53289765 28.7452097 9.98388769 28.9535266 10.5878451 28.9720234 11.3438908L24.433991 11.3438908 24.433991 11.3438908zM31.8827641 7.02212266C30.6265327 5.7913506 28.8462736 5.17508545 26.5412837 5.17508545 24.1183507 5.17508545 22.2555245 5.88277938 20.9499918 7.29816724 19.6445295 8.71355511 18.990462 10.744329 18.990462 13.3904889 18.990462 15.9531322 19.6955186 17.9294004 21.1056317 19.3166564 22.5139866 20.7039123 24.4928571 21.3984194 27.0414695 21.3984194 28.2652086 21.3984194 29.3183978 21.3149027 30.2010372 21.1487485 31.0784018 20.9843525 31.9276346 20.6872089 32.7522518 20.258197L31.9399423 16.7267603C31.3412244 16.9711565 30.7715528 17.1592888 30.2344439 17.2832451 29.455541 17.4634653 28.603706 17.5540149 27.6752819 17.5540149 26.6581719 17.5540149 25.8538096 17.3052232 25.2647973 16.8076396 24.6748707 16.3091769 24.3619029 15.6217028 24.325894 14.7460964L33.7659157 14.7460964 33.7659157 12.3399371C33.7659157 10.0252065 33.1381516 8.25201559 31.8827641 7.02212266L31.8827641 7.02212266zM.135747258 47.2067512L7.06157493 47.2067512C13.4391079 47.2067512 17.1328827 44.0035559 17.1328827 37.020013 17.1328827 31.017629 13.8142569 27.0641357 7.89844577 27.0641357L.135747258 27.0641357.135747258 47.2067512zM5.56097893 31.0464866L5.99384316 31.0464866C8.93731992 31.0464866 11.4190748 32.0565031 11.4190748 37.2220163 11.4190748 41.1177944 9.86076361 43.3398307 6.74414116 43.3398307L5.56097893 43.3398307 5.56097893 31.0464866zM19.7589257 47.2067512L24.9532964 47.2067512 24.9532964 32.1719336 19.7589257 32.1719336 19.7589257 47.2067512zM19.7589257 29.892182L24.9532964 29.892182 24.9532964 25.5635397 19.7589257 25.5635397 19.7589257 29.892182zM28.4450679 52.6031252C29.2242235 52.9494166 31.8502665 53.6131418 34.1011605 53.6131418 39.988114 53.6131418 42.2678656 50.6119498 42.2678656 45.3310062L42.2678656 35.6925627C42.2678656 34.2208243 42.3544384 33.0665197 42.4410113 32.1719336L37.5640743 32.1719336C37.4486438 32.9222316 37.362071 33.9033905 37.362071 34.6248309L37.3043558 34.6248309C36.6406306 33.1819501 35.4574684 31.8256422 33.2065744 31.8256422 29.6570877 31.8256422 27.608197 35.3174137 27.608197 39.1843341 27.608197 43.8881254 29.1953659 47.2067512 33.2931472 47.2067512 35.111177 47.2067512 36.611773 46.167877 37.3043558 44.2344168L37.362071 44.2344168 37.362071 45.3598638C37.362071 48.1879101 36.2943392 49.8616518 33.2642896 49.8616518 31.0422532 49.8616518 29.5705149 49.0247809 28.6182136 48.4764863L28.4450679 52.6031252zM37.0734948 39.5883407C37.0734948 42.0123804 36.7849187 43.6861221 35.0534618 43.6861221 33.3797201 43.6861221 33.0334287 41.9546652 33.0334287 39.3863374 33.0334287 37.1931587 33.4374353 35.5771322 34.9380313 35.5771322 36.4097697 35.5771322 37.0734948 37.0488706 37.0734948 39.5883407zM45.384488 47.2067512L50.5788588 47.2067512 50.5788588 32.1719336 45.384488 32.1719336 45.384488 47.2067512zM45.384488 29.892182L50.5788588 29.892182 50.5788588 25.5635397 45.384488 25.5635397 45.384488 29.892182zM52.6277495 35.6925627L55.1960772 35.6925627 55.1960772 43.1378274C55.1960772 45.9370161 57.1583951 47.5530426 60.015299 47.5530426 61.515895 47.5530426 62.7856301 47.3510393 63.4493552 47.2067512L63.3050671 43.6861221C63.0742062 43.8304102 62.6124844 43.916983 62.0930473 43.916983 61.1696036 43.916983 60.390448 43.3686883 60.390448 42.0989533L60.390448 35.6925627 63.3050671 35.6925627 63.3050671 32.1719336 60.390448 32.1719336 60.390448 27.3815695 55.1960772 28.9975959 55.1960772 32.1719336 52.6277495 32.1719336 52.6277495 35.6925627zM78.5996032 37.395162C78.5996032 34.3073971 77.5607291 31.8256422 72.2797855 31.8256422 69.769173 31.8256422 67.893428 32.3450793 66.6525505 32.8068011L66.8256962 36.5294335C67.9222856 35.8368508 69.538312 35.1154104 71.1543385 35.1154104 73.2032292 35.1154104 73.9823848 36.2119998 73.9823848 37.1643011L73.9823848 37.6260229 72.6549345 37.6260229C67.4317061 37.6260229 64.9210936 39.415195 64.9210936 42.7626784 64.9210936 45.64844 66.8256962 47.5530426 69.4805968 47.5530426 71.2986266 47.5530426 72.4817888 46.8027446 73.9823848 45.1290029 73.9823848 45.8215856 74.0978153 46.5141684 74.1555305 47.2067512L78.7727489 47.2067512C78.6861761 46.3121651 78.5996032 45.1001453 78.5996032 43.8881254L78.5996032 37.395162zM73.9823848 40.4252116C73.9823848 41.8392347 73.7226663 44.2632744 71.3274842 44.2632744 70.2597524 44.2632744 69.538312 43.7438373 69.538312 42.416387 69.538312 40.6560725 71.0677657 39.9346321 73.3763749 39.9346321L73.9823848 39.9346321 73.9823848 40.4252116zM81.7162257 47.2067512L86.9105964 47.2067512 86.9105964 25.5635397 81.7162257 25.5635397 81.7162257 47.2067512z"/>
  </g>
</svg>
