<svg xmlns="http://www.w3.org/2000/svg" width="74" height="52" viewBox="0 0 74 52">
  <path fill="#EC1B2D" fill-rule="evenodd" d="M212.944165,1472.79657 L271.057239,1472.79657 C275.189176,1472.79657 278.547885,1476.13112 278.547885,1480.26308 L278.547885,1515.92831 C278.547885,1520.06027 275.189176,1523.41898 271.057239,1523.41898 L212.944165,1523.41898 C208.812203,1523.41898 205.47766,1520.06027 205.47766,1515.92831 L205.47766,1480.26308 C205.47766,1476.13112 208.812203,1472.79657 212.944165,1472.79657 Z M213.040811,1477.89506 L270.984734,1477.89506 C272.26539,1477.89506 273.304418,1478.93409 273.304418,1480.21474 L273.304418,1515.97664 C273.304418,1517.2573 272.26539,1518.29632 270.984734,1518.29632 L213.040811,1518.29632 C211.760155,1518.29632 210.72113,1517.2573 210.72113,1515.97664 L210.72113,1480.21474 C210.72113,1478.93409 211.760155,1477.89506 213.040811,1477.89506 Z M215.529647,1481.68872 L228.384604,1481.68872 C236.406845,1481.68872 241.118717,1486.85968 241.118717,1498.0232 C241.118717,1509.91161 236.189384,1514.67182 228.384604,1514.67182 L215.529647,1514.67182 L215.529647,1481.68872 Z M223.479412,1486.85968 L226.306522,1486.85968 C230.873437,1486.85968 233.289768,1490.14591 233.289768,1497.87822 C233.289768,1506.74619 230.462654,1509.40418 226.451507,1509.40418 L223.479412,1509.40418 L223.479412,1486.85968 Z M244.719083,1481.68872 L259.096325,1481.68872 C265.113022,1481.68872 268.133454,1485.31323 268.133454,1489.4935 C268.133454,1494.9786 264.919701,1496.83919 262.430894,1497.37079 L262.430894,1497.51577 C266.152047,1497.99903 269.510756,1500.63285 269.510756,1505.68303 C269.486616,1511.11979 265.547972,1514.67182 258.202282,1514.67182 L244.719083,1514.67182 L244.719083,1481.68872 Z M252.596371,1500.97116 L256.341694,1500.97116 C260.038707,1500.97116 261.029396,1502.75924 261.029396,1505.10309 C261.029396,1507.83356 259.047989,1509.40418 256.39003,1509.40418 L252.596371,1509.40418 L252.596371,1500.97116 Z M252.596371,1486.81137 L255.640944,1486.81137 C258.75805,1486.81137 260.038707,1488.55112 260.038707,1490.58086 C260.038707,1493.04553 258.709711,1494.76114 255.592633,1494.76114 L252.596371,1494.76114 L252.596371,1486.81137 Z" transform="translate(-205 -1472)"/>
</svg>
