<svg xmlns="http://www.w3.org/2000/svg" width="135" height="24" viewBox="0 0 135 24" xmlns:xlink="http://www.w3.org/1999/xlink">
  <defs>
    <polygon id="a" points="15.902 .114 .038 .114 .038 22.352 15.902 22.352 15.902 .114"/>
  </defs>
  <g fill="none" fill-rule="evenodd" transform="translate(.621 .295)">
    <polygon fill="#000000" points="23.481 3.22 35.195 3.22 35.195 .297 23.481 .297"/>
    <polygon fill="#000000" points="13.677 .297 13.677 9.609 2.923 9.609 2.923 3.219 0 3.219 0 22.533 2.923 22.533 2.923 12.532 13.677 12.532 13.677 22.533 16.599 22.533 16.599 12.532 32.259 12.532 32.259 9.609 16.599 9.609 16.599 .297"/>
    <polygon fill="#000000" points="23.469 22.533 35.181 22.533 35.181 19.609 23.469 19.609"/>
    <polygon fill="#000000" points="81.996 3.22 93.722 3.22 93.722 .297 81.996 .297"/>
    <polygon fill="#000000" points="81.996 12.532 90.786 12.532 90.786 9.61 81.996 9.61"/>
    <polygon fill="#000000" points="81.996 22.533 93.708 22.533 93.708 19.609 81.996 19.609"/>
    <g transform="translate(39.577 .181)">
      <path fill="#000000" d="M8.44719486 23.0374014C3.22951879 23.0374014.114448629 20.4805452.114448629 16.1982467L.114448629.121094033 3.03724509.121094033 3.03724509 16.1982467C3.03724509 19.435297 5.97923939 20.1146049 8.44719486 20.1146049 10.9151503 20.1146049 13.8571446 19.435297 13.8571446 16.1982467L13.8571446 9.42849955 16.7796457 9.42849955 16.7796457 16.1982467C16.7796457 20.4805452 13.6648709 23.0374014 8.44719486 23.0374014M27.4539371 3.03845603L35.7341108 3.03845603 35.7341108.115659569 27.4539371.115659569C24.0798438.115659569 21.4370404 2.80306105 21.4370404 6.2335664 21.4370404 9.58048733 23.9546149 12.2123628 27.2105676 12.3390685L21.5658136 22.3532497 24.9210043 22.3532497 30.5589653 12.3511779 32.8104282 12.3511779 32.8104282 22.3514775 35.7341108 22.3514775 35.7341108 9.42985817 35.7341108 9.42867676 27.4539371 9.42867676C25.6898038 9.42867676 24.3595415 8.05499787 24.3595415 6.2335664 24.3595415 4.41213493 25.6898038 3.03845603 27.4539371 3.03845603"/>
      <polygon fill="#000000" points="81.507 .116 78.152 .116 85.049 12.351 78.158 12.351 78.158 15.274 86.696 15.274 86.853 15.551 90.687 22.353 94.042 22.353"/>
      <g transform="translate(58.184)">
        <mask id="b" fill="white">
          <use xlink:href="#a"/>
        </mask>
        <polygon fill="#000000" points="14.681 .114 10.546 .114 .038 10.622 11.767 22.352 15.902 22.352 4.173 10.622" mask="url(#b)"/>
      </g>
    </g>
  </g>
</svg>
