<svg xmlns="http://www.w3.org/2000/svg" width="94" height="44" viewBox="0 0 94 44">
  <g fill="none" fill-rule="evenodd" transform="translate(.213 .142)">
    <g fill="#289548" transform="translate(0 7.898)">
      <polygon points=".211 .053 7.45 .053 15.584 12.373 15.584 12.373 15.584 .053 22.955 .053 22.955 23.614 15.716 23.614 7.582 11.188 7.582 11.188 7.582 23.614 .211 23.614"/>
      <path d="M55.4668907,15.6370826 L55.4668907,15.6370826 L60.3107008,15.6370826 L60.3107008,15.6370826 L57.8624707,7.23939011 L57.8624707,7.23939011 L55.4668907,15.6370826 L55.4668907,15.6370826 Z M45.51602,23.6135743 L53.9663626,0.0526501099 L61.837554,0.0526501099 L70.2878967,23.6135743 L62.5483305,23.6135743 L61.6796037,20.5335428 L61.6796037,20.5335428 L53.9926877,20.5335428 L53.9926877,20.5335428 L53.1502859,23.6135743 L45.51602,23.6135743 L45.51602,23.6135743 Z"/>
      <polygon points="70.683 .053 78.396 .053 78.396 7.95 85.767 7.95 85.767 .053 93.507 .053 93.507 23.614 85.767 23.614 85.767 14.4 78.396 14.4 78.396 23.614 70.683 23.614"/>
    </g>
    <g fill="#A5A7AA" transform="translate(.224 34.486)">
      <path d="M9.51643883 5.10706066C9.33216345 6.1337378 9.01626279 6.97613956 8.33181136 7.52896571 7.64735993 8.10811692 6.56803268 8.42401758 4.85690411 8.42401758 3.14577554 8.42401758.0130940007 8.2923923.0130940007 4.23833384.0130940007.184275385 3.17210059.0526501099 4.85690411.0526501099 6.54170762.0526501099 9.14788806.289575604 9.51643883 3.39593209L6.35743224 3.39593209C6.27845707 2.84310593 5.93623136 2.02702923 4.85690411 2.02702923 3.72492675 2.02702923 2.98782521 2.65883055 2.98782521 4.23833384 2.98782521 5.81783714 3.69860169 6.44963846 4.72527883 6.44963846 5.6203307 6.44963846 6.1468318 6.05476263 6.35743224 5.10706066L9.51643883 5.10706066zM14.9920503.0789751648C16.7031788.0789751648 19.8358604.210600439 19.8358604 4.2646589 19.8358604 8.31871736 16.6768538 8.45034263 14.9920503 8.45034263 13.2809217 8.45034263 10.1482401 8.31871736 10.1482401 4.2646589 10.1482401.210600439 13.2809217.0789751648 14.9920503.0789751648zM14.9920503 6.47596351C16.1240276 6.47596351 16.8611292 5.84416219 16.8611292 4.2646589 16.8611292 2.6851556 16.1240276 2.05335428 14.9920503 2.05335428 13.8600729 2.05335428 13.1229714 2.6851556 13.1229714 4.2646589 13.1229714 5.84416219 13.8600729 6.47596351 14.9920503 6.47596351z"/>
      <polygon points="20.836 .342 24.048 .342 26.891 4.686 26.917 4.686 26.917 .342 29.602 .342 29.602 8.161 26.522 8.161 23.548 3.791 23.521 3.791 23.521 8.161 20.836 8.161"/>
      <polygon points="30.998 .342 38.184 .342 38.184 2.238 33.788 2.238 33.788 3.422 37.816 3.422 37.816 5.318 33.788 5.318 33.788 8.161 30.971 8.161 30.971 .342"/>
      <polygon points="38.922 .342 46.477 .342 46.477 2.238 41.738 2.238 41.738 3.291 46.135 3.291 46.135 5.186 41.738 5.186 41.738 6.239 46.477 6.239 46.477 8.134 38.922 8.134"/>
      <path d="M47.3981929,0.342225714 L53.3213302,0.342225714 C54.1374069,0.342225714 54.6112579,0.421200879 55.0061338,0.631801318 C55.5326348,0.921376923 55.9801608,1.68480352 55.9801608,2.52720527 C55.9801608,3.26430681 55.6905852,4.05405846 54.8745085,4.31730901 L54.8745085,4.34363406 C55.2957094,4.47525934 55.6379351,4.87013516 55.6905852,5.55458659 L55.8222105,7.26571516 C55.8485355,7.60794088 55.9801608,7.95016659 56.1644362,8.18709208 L53.1107298,8.18709208 C53.0054296,7.95016659 53.0054296,7.60794088 52.9527795,6.71288901 C52.9264544,6.1337378 52.742179,5.79151208 52.2156779,5.79151208 L50.2149738,5.79151208 L50.2149738,8.18709208 L47.3981929,8.18709208 L47.3981929,0.342225714 L47.3981929,0.342225714 Z M50.1886487,3.79080791 L52.1893529,3.79080791 C52.742179,3.79080791 52.9527795,3.55388242 52.9527795,3.05370637 C52.9527795,2.47455516 52.6105538,2.31660483 52.1367028,2.31660483 L50.1886487,2.31660483 L50.1886487,3.79080791 Z"/>
      <polygon points="56.954 .342 64.509 .342 64.509 2.238 59.771 2.238 59.771 3.291 64.167 3.291 64.167 5.186 59.771 5.186 59.771 6.239 64.509 6.239 64.509 8.134 56.954 8.134"/>
      <polygon points="65.431 .342 68.643 .342 71.486 4.686 71.512 4.686 71.512 .342 74.197 .342 74.197 8.161 71.117 8.161 68.142 3.791 68.116 3.791 68.116 8.161 65.431 8.161 65.431 .342"/>
      <path d="M84.7271208,5.10706066 C84.5428454,6.1337378 84.2269447,6.97613956 83.5424933,7.52896571 C82.8580419,8.10811692 81.7787146,8.42401758 80.067586,8.42401758 C78.3564575,8.42401758 75.2237759,8.2923923 75.2237759,4.23833384 C75.2237759,0.184275385 78.3827825,0.0526501099 80.067586,0.0526501099 C81.7523896,0.0526501099 84.35857,0.289575604 84.7271208,3.39593209 L81.5681142,3.39593209 C81.489139,2.84310593 81.1469133,2.02702923 80.067586,2.02702923 C78.9356087,2.02702923 78.1985071,2.65883055 78.1985071,4.23833384 C78.1985071,5.81783714 78.9092836,6.44963846 79.9359608,6.44963846 C80.8310126,6.44963846 81.3575137,6.05476263 81.5681142,5.10706066 L84.7271208,5.10706066 Z"/>
      <polygon points="85.727 .342 93.283 .342 93.283 2.238 88.544 2.238 88.544 3.291 92.941 3.291 92.941 5.186 88.544 5.186 88.544 6.239 93.283 6.239 93.283 8.134 85.727 8.134"/>
    </g>
    <g fill="#8C8C8C">
      <polygon points="4.107 4.265 .211 4.265 .211 .263 1 .263 1 3.58 4.107 3.58"/>
      <polygon points="9.451 4.265 5.107 4.265 5.107 .263 9.266 .263 9.266 .974 5.897 .974 5.897 1.843 8.266 1.843 8.266 2.554 5.897 2.554 5.897 3.58 9.424 3.58 9.424 4.265"/>
      <path d="M15.3738321 4.2646589L14.5051053 4.2646589 14.0312543 3.42225714 11.3460987 3.42225714 10.8722477 4.29098395 10.0035209 4.29098395 12.2148255.263250549 13.1625275.263250549 15.3738321 4.2646589zM13.6363785 2.71148066L12.6886765.921376923 11.7146494 2.71148066 13.6363785 2.71148066zM18.9013894.263250549C19.6121659.263250549 20.1649921.447525934 20.586193.816076703 21.0073938 1.18462747 21.2179943 1.65847846 21.2179943 2.23762967 21.2179943 2.76413077 20.9810688 3.26430681 20.5335428 3.76448286 20.4019176 3.89610813 20.2176422 4.0277334 19.9280666 4.13303362 19.638491 4.23833384 19.3225903 4.29098395 19.0066897 4.29098395L16.295209 4.29098395 16.295209.263250549 18.9013894.263250549zM19.0856648 3.58020747C19.4805406 3.58020747 19.7964413 3.4485822 20.0333668 3.2116567 20.2702923 2.97473121 20.4019176 2.65883055 20.4019176 2.29027978 20.4019176 1.89540396 20.2702923 1.5795033 20.0070417 1.31625275 19.7437912 1.07932725 19.4015655.947701978 18.9540396.947701978L17.0849607.947701978 17.0849607 3.55388242 19.0856648 3.55388242 19.0856648 3.58020747z"/>
      <polygon points="26.799 4.265 22.455 4.265 22.455 .263 26.615 .263 26.615 .974 23.245 .974 23.245 1.843 25.614 1.843 25.614 2.554 23.245 2.554 23.245 3.58 26.773 3.58 26.773 4.265"/>
      <path d="M32.6957182 4.2646589L31.8006664 4.2646589 30.7476642 2.79045582 28.74696 2.79045582 28.74696 4.2646589 27.9572083 4.2646589 27.9572083.263250549 31.1951901.263250549C31.616391.263250549 31.9586167.368550769 32.2218672.605476263 32.4851178.842401758 32.590418 1.13197736 32.590418 1.52685319 32.590418 2.18497956 32.2481923 2.60618044 31.5900659 2.73780571L32.6957182 4.2646589zM31.0898899 2.10600439C31.5637409 2.10600439 31.8006664 1.92172901 31.8006664 1.55317824 31.8006664 1.15830242 31.5374158.974027032 31.0372398.974027032L28.74696.974027032 28.74696 2.10600439 31.0898899 2.10600439zM37.5921784 1.26360264C37.0656773 1.00035209 36.5128512.842401758 35.8810499.842401758 34.985998.842401758 34.5384721 1.00035209 34.5384721 1.31625275 34.5384721 1.50052813 34.6964224 1.63215341 35.0386481 1.68480352 35.486174 1.71112857 35.960025 1.76377868 36.407551 1.81642879 37.0656773 1.8690789 37.5395283 2.00070417 37.8027789 2.1586545 38.1186795 2.34292989 38.2766299 2.63250549 38.2766299 3.00105626 38.2766299 3.42225714 38.0923545 3.76448286 37.6974787 4.00140835 37.3026028 4.23833384 36.7497767 4.34363406 36.0126751 4.34363406 34.985998 4.34363406 34.1435962 4.10670857 33.53812 3.63285758L33.9593209 3.08003143C34.512147 3.47490725 35.1965984 3.65918264 35.9863501 3.65918264 36.433876 3.65918264 36.8024268 3.60653253 37.0393523 3.47490725 37.2762778 3.36960703 37.4079031 3.2116567 37.4079031 3.02738132 37.4079031 2.81678088 37.2499527 2.65883055 36.9603771 2.57985538 36.8024268 2.52720527 36.5391762 2.50088022 36.1706255 2.47455516 35.6177993 2.44823011 35.2755736 2.42190505 35.1439483 2.42190505 34.6437723 2.36925494 34.2752215 2.26395472 34.038296 2.10600439 33.8013705 1.94805406 33.6960703 1.71112857 33.6960703 1.36890286 33.6960703.974027032 33.8803457.684451428 34.2488965.447525934 34.6174472.210600439 35.1439483.10530022 35.8283998.10530022 36.7234516.10530022 37.4605532.289575604 38.0397044.684451428L37.5921784 1.26360264zM46.3584217 1.23727758L45.6476453 1.47420308C45.2264444 1.0530022 44.6736182.842401758 44.0154918.842401758 43.4363406.842401758 42.9888147.974027032 42.646589 1.23727758 42.3043633 1.50052813 42.1464129 1.84275385 42.1464129 2.26395472 42.1464129 2.6851556 42.3043633 3.02738132 42.646589 3.29063187 42.9888147 3.55388242 43.4363406 3.68550769 44.0154918 3.68550769 44.6736182 3.68550769 45.2264444 3.47490725 45.6476453 3.02738132L46.3320967 3.39593209C45.7529455 4.05405846 44.9631938 4.39628417 43.9891668 4.39628417 43.1994151 4.39628417 42.5412888 4.18568373 42.0411127 3.79080791 41.5409367 3.39593209 41.3040112 2.86943099 41.3040112 2.26395472 41.3040112 1.60582835 41.5935868 1.07932725 42.1464129.684451428 42.646589.315900659 43.2257402.15795033 43.9365167.15795033 44.9631938.131625275 45.7529455.500176044 46.3584217 1.23727758zM52.6764349 2.26395472C52.6764349 2.9220811 52.3868593 3.4485822 51.8340332 3.86978307 51.3601822 4.21200879 50.7547059 4.39628417 50.0439294 4.39628417 49.3331529 4.39628417 48.7276767 4.21200879 48.2538257 3.86978307 47.7009995 3.4485822 47.4114239 2.9220811 47.4114239 2.26395472 47.4114239 1.60582835 47.7009995 1.07932725 48.2538257.658126373 48.7540017.289575604 49.359478.10530022 50.0439294.10530022 50.7283809.10530022 51.3338571.289575604 51.8340332.658126373 52.3868593 1.07932725 52.6764349 1.60582835 52.6764349 2.26395472zM51.8603582 2.26395472C51.8603582 1.84275385 51.7024079 1.50052813 51.3601822 1.23727758 51.0179565.974027032 50.5704305.842401758 50.0439294.842401758 49.4911033.842401758 49.0699024.974027032 48.7276767 1.23727758 48.385451 1.50052813 48.2275006 1.84275385 48.2275006 2.26395472 48.2275006 2.6851556 48.385451 3.02738132 48.7276767 3.29063187 49.0699024 3.55388242 49.5174283 3.68550769 50.0702545 3.68550769 50.6230806 3.68550769 51.0706066 3.55388242 51.3865072 3.29063187 51.6760828 3.02738132 51.8603582 2.6851556 51.8603582 2.26395472z"/>
      <polygon points="58.652 4.265 57.494 4.265 54.756 .921 54.756 4.265 53.966 4.265 53.966 .263 55.125 .263 57.862 3.607 57.862 .263 58.652 .263"/>
      <polygon points="64.865 4.265 63.707 4.265 60.969 .921 60.969 4.265 60.179 4.265 60.179 .263 61.337 .263 64.075 3.607 64.075 .263 64.865 .263"/>
      <polygon points="70.709 4.265 66.392 4.265 66.392 .263 70.551 .263 70.551 .974 67.155 .974 67.155 1.843 69.524 1.843 69.524 2.554 67.155 2.554 67.155 3.58 70.683 3.58 70.683 4.265"/>
      <path d="M76.684885,1.23727758 L75.9741085,1.47420308 C75.5529077,1.0530022 75.0000815,0.842401758 74.3419551,0.842401758 C73.7628039,0.842401758 73.315278,0.974027032 72.9730523,1.23727758 C72.6308266,1.50052813 72.4728762,1.84275385 72.4728762,2.26395472 C72.4728762,2.6851556 72.6308266,3.02738132 72.9730523,3.29063187 C73.315278,3.55388242 73.7628039,3.68550769 74.3419551,3.68550769 C75.0000815,3.68550769 75.5529077,3.47490725 75.9741085,3.02738132 L76.65856,3.39593209 C76.0794088,4.05405846 75.2896571,4.39628417 74.3156301,4.39628417 C73.5258784,4.39628417 72.867752,4.18568373 72.367576,3.79080791 C71.8674,3.39593209 71.6304745,2.86943099 71.6304745,2.26395472 C71.6304745,1.60582835 71.9200501,1.07932725 72.4728762,0.684451428 C72.9730523,0.315900659 73.5522035,0.15795033 74.26298,0.15795033 C75.2896571,0.131625275 76.0794088,0.500176044 76.684885,1.23727758 Z"/>
      <polygon points="82.055 .974 80.133 .974 80.133 4.291 79.344 4.291 79.344 .974 77.422 .974 77.422 .263 82.055 .263"/>
      <polygon points="87.399 4.265 83.082 4.265 83.082 .263 87.241 .263 87.241 .974 83.845 .974 83.845 1.843 86.215 1.843 86.215 2.554 83.845 2.554 83.845 3.58 87.399 3.58"/>
      <path d="M91.1636652,0.263250549 C91.8744417,0.263250549 92.4272679,0.447525934 92.8484687,0.816076703 C93.2696696,1.18462747 93.4802701,1.65847846 93.4802701,2.23762967 C93.4802701,2.76413077 93.2433446,3.26430681 92.7958186,3.76448286 C92.6641934,3.89610813 92.479918,4.0277334 92.1903424,4.13303362 C91.9007668,4.23833384 91.5848661,4.29098395 91.2689654,4.29098395 L88.5311597,4.29098395 L88.5311597,0.263250549 L91.1636652,0.263250549 Z M91.3479406,3.58020747 C91.7428164,3.58020747 92.0587171,3.4485822 92.2956426,3.2116567 C92.5325681,2.97473121 92.6641934,2.65883055 92.6641934,2.29027978 C92.6641934,1.89540396 92.5325681,1.5795033 92.2693175,1.31625275 C92.006067,1.07932725 91.6638413,0.947701978 91.2163153,0.947701978 L89.3472364,0.947701978 L89.3472364,3.55388242 L91.3479406,3.55388242 L91.3479406,3.58020747 Z"/>
    </g>
    <g fill="#289548" transform="translate(23.956 7.371)">
      <path d="M11.3460987 20.6388431C11.003873 20.7967934 10.7406224 21.1390191 10.7406224 21.56022 10.7406224 21.7444954 10.7932725 21.9287708 10.8985727 22.0867211 11.0828481 22.3499716 11.3724237 22.534247 11.7409745 22.534247 12.0832002 22.534247 12.3991009 22.3499716 12.5833763 22.0867211 12.6886765 21.9287708 12.7413266 21.7444954 12.7413266 21.56022 12.7413266 21.1653442 12.5044011 20.7967934 12.1358503 20.6388431L11.3460987 20.6388431 11.3460987 20.6388431zM16.3478591 23.7188745L16.3478591 23.8504998C16.3478591 23.9294749 16.3741842 24.0347752 16.4005092 24.1137503 16.8743602 23.9558 17.3218861 23.7715246 17.743087 23.5872492 17.6377868 23.3239987 17.3745363 23.1397233 17.0849607 23.1397233 16.7164099 23.1133982 16.4005092 23.3766488 16.3478591 23.7188745L16.3478591 23.7188745zM13.6100534 23.7188745L13.6100534 23.8504998C13.6100534 24.1927255 13.8469789 24.5086261 14.1365545 24.6139264 14.399805 24.5876013 14.6630556 24.5349512 14.9263061 24.4823011 15.1105815 24.3243508 15.2422068 24.1137503 15.2422068 23.8504998L15.2422068 23.7188745C15.1895567 23.3239987 14.847331 23.0344231 14.4261301 23.0344231 14.0049292 23.0344231 13.6627035 23.3239987 13.6100534 23.7188745L13.6100534 23.7188745zM10.8459226 23.7188745L10.8459226 23.8504998C10.8459226 24.3506758 11.2407985 24.7455516 11.7409745 24.7455516 12.2411505 24.7455516 12.6360264 24.3506758 12.6360264 23.8504998L12.6360264 23.7188745C12.5833763 23.2713486 12.1885004 22.9291228 11.7409745 22.9291228 11.2934486 22.9291228 10.8985727 23.2713486 10.8459226 23.7188745L10.8459226 23.7188745zM8.26606725 23.7188745L8.26606725 23.8504998C8.26606725 24.0611002 8.34504241 24.2717006 8.50299274 24.4033259 8.8188934 24.455976 9.10846901 24.5349512 9.42436967 24.5612763 9.68762021 24.429651 9.89822065 24.1664004 9.89822065 23.8241747L9.89822065 23.6925494C9.84557054 23.2976736 9.50334483 23.008098 9.08214395 23.008098 8.66094307 23.0344231 8.34504241 23.3239987 8.26606725 23.7188745L8.26606725 23.7188745zM7.13408989 24.0347752C7.16041494 23.982125 7.16041494 23.9031499 7.16041494 23.8504998L7.16041494 23.7188745C7.10776483 23.3766488 6.79186417 23.1133982 6.44963846 23.1133982 6.16006285 23.1133982 5.92313736 23.2713486 5.81783714 23.481949 6.21271296 23.6925494 6.6602389 23.8768248 7.13408989 24.0347752L7.13408989 24.0347752zM19.2436152 22.0867211C19.3752404 22.2183464 19.5595158 22.2709965 19.7437912 22.2709965L19.7964413 22.2709965C20.0070417 22.0867211 20.2439672 21.9024457 20.4545677 21.7181703 20.4545677 21.6655202 20.4808927 21.6128701 20.4808927 21.56022 20.4808927 21.1653442 20.1649921 20.8231185 19.7437912 20.8231185 19.3489154 20.8231185 19.0066897 21.1390191 19.0066897 21.56022 19.0066897 21.7444954 19.0856648 21.9550958 19.2436152 22.0867211L19.2436152 22.0867211zM16.4531593 22.0867211C16.6111097 22.2446714 16.8217101 22.3762967 17.0586356 22.3762967 17.2955611 22.3762967 17.5061615 22.2709965 17.6641119 22.0867211 17.7957371 21.9550958 17.8747123 21.7708204 17.8747123 21.56022 17.8747123 21.1126941 17.5061615 20.7441433 17.0586356 20.7441433 16.6111097 20.7441433 16.2425589 21.1126941 16.2425589 21.56022 16.2425589 21.7444954 16.3215341 21.9287708 16.4531593 22.0867211L16.4531593 22.0867211zM13.6890286 22.0867211C13.8469789 22.2973215 14.1102294 22.4552719 14.399805 22.4552719 14.6893807 22.4552719 14.9526312 22.3236466 15.1369066 22.0867211 15.2422068 21.9287708 15.321182 21.7444954 15.321182 21.56022 15.321182 21.0600439 14.9263061 20.6651681 14.4261301 20.6651681 13.9259541 20.6651681 13.5310782 21.0600439 13.5310782 21.56022 13.5047532 21.7444954 13.5574033 21.9287708 13.6890286 22.0867211L13.6890286 22.0867211zM8.34504241 22.0867211C8.50299274 22.2973215 8.76624329 22.4552719 9.0558189 22.4552719 9.3453945 22.4552719 9.60864505 22.3236466 9.79292043 22.0867211 9.89822065 21.9287708 9.97719582 21.7444954 9.97719582 21.56022 9.97719582 21.0600439 9.58231999 20.6651681 9.08214395 20.6651681 8.58196791 20.6651681 8.18709208 21.0600439 8.18709208 21.56022 8.18709208 21.7444954 8.23974219 21.9287708 8.34504241 22.0867211L8.34504241 22.0867211zM5.81783714 22.0867211C5.97578747 22.2446714 6.18638791 22.3762967 6.4233134 22.3762967 6.6602389 22.3762967 6.87083934 22.2709965 7.02878967 22.0867211 7.16041494 21.9550958 7.23939011 21.7708204 7.23939011 21.56022 7.23939011 21.1126941 6.87083934 20.7441433 6.4233134 20.7441433 5.97578747 20.7441433 5.6072367 21.1126941 5.6072367 21.56022 5.6072367 21.7444954 5.68621187 21.9287708 5.81783714 22.0867211L5.81783714 22.0867211zM3.81713296 22.2709965C3.97508329 22.2446714 4.13303362 22.1920213 4.23833384 22.0867211 4.36995912 21.9550958 4.47525934 21.7708204 4.47525934 21.56022 4.47525934 21.1653442 4.15935868 20.8231185 3.7381578 20.8231185 3.34328198 20.8231185 3.00105626 21.1390191 3.00105626 21.56022L3.00105626 21.586545C3.29063187 21.8234705 3.55388242 22.060396 3.81713296 22.2709965L3.81713296 22.2709965zM.842401758 18.5854888C1.0530022 19.0066897 1.28992769 19.4278905 1.55317824 19.8227664 1.71112857 19.6911411 1.81642879 19.4805406 1.81642879 19.2436152 1.81642879 19.0856648 1.76377868 18.9277145 1.65847846 18.7960892 1.5795033 18.690789 1.47420308 18.6381389 1.36890286 18.5854888L.842401758 18.5854888.842401758 18.5854888zM3.29063187 18.5854888C3.2116567 18.6381389 3.13268154 18.7171141 3.08003143 18.7960892 3.00105626 18.9277145 2.94840615 19.0856648 2.94840615 19.2436152 2.94840615 19.6911411 3.31695692 20.0596919 3.76448286 20.0596919 4.21200879 20.0596919 4.58055956 19.6911411 4.58055956 19.2436152 4.58055956 19.0856648 4.52790945 18.9277145 4.44893428 18.7960892 4.39628417 18.7171141 4.31730901 18.6381389 4.23833384 18.5854888L3.29063187 18.5854888 3.29063187 18.5854888zM5.81783714 18.5854888C5.73886197 18.6381389 5.68621187 18.7171141 5.63356176 18.7960892 5.55458659 18.9277145 5.50193648 19.0856648 5.50193648 19.2436152 5.50193648 19.7437912 5.8968123 20.138667 6.39698835 20.138667 6.89716439 20.138667 7.29204022 19.7437912 7.29204022 19.2436152 7.29204022 19.0856648 7.23939011 18.9277145 7.16041494 18.7960892 7.10776483 18.7171141 7.05511472 18.6381389 6.97613956 18.5854888L5.81783714 18.5854888 5.81783714 18.5854888zM8.34504241 18.5854888C8.2923923 18.6644639 8.23974219 18.7171141 8.18709208 18.7960892 8.10811692 18.9277145 8.08179186 19.0856648 8.08179186 19.2436152 8.08179186 19.7964413 8.5293178 20.2439672 9.08214395 20.2439672 9.6349701 20.2439672 10.082496 19.7964413 10.082496 19.2436152 10.082496 19.0856648 10.056171 18.9277145 9.97719582 18.7960892 9.92454571 18.7171141 9.89822065 18.6381389 9.81924549 18.5854888L8.34504241 18.5854888 8.34504241 18.5854888zM13.7416787 18.5854888C13.7153536 18.6118138 13.6890286 18.6118138 13.6627035 18.6381389 13.6100534 18.690789 13.5837283 18.7434391 13.5574033 18.8224143 13.4784281 18.9540396 13.4521031 19.1119899 13.4521031 19.2699402 13.4521031 19.8227664 13.899629 20.2702923 14.4524552 20.2702923 15.0052813 20.2702923 15.4528072 19.8227664 15.4528072 19.2699402 15.4528072 19.1119899 15.4264822 18.9540396 15.347507 18.8224143 15.2948569 18.7434391 15.2685319 18.6644639 15.1895567 18.6118138L13.7416787 18.5854888 13.7416787 18.5854888zM16.4531593 18.5854888C16.3741842 18.6381389 16.3215341 18.7171141 16.2688839 18.7960892 16.1899088 18.9277145 16.1372587 19.0856648 16.1372587 19.2436152 16.1372587 19.7437912 16.5321345 20.138667 17.0323105 20.138667 17.5324866 20.138667 17.9273624 19.7437912 17.9273624 19.2436152 17.9273624 19.0856648 17.8747123 18.9277145 17.7957371 18.7960892 17.743087 18.7171141 17.6904369 18.6381389 17.6114617 18.5854888L16.4531593 18.5854888 16.4531593 18.5854888zM19.2699402 18.5854888C19.190965 18.6381389 19.1119899 18.7171141 19.0593398 18.7960892 18.9803646 18.9277145 18.9277145 19.0856648 18.9277145 19.2436152 18.9277145 19.6911411 19.2962653 20.0596919 19.7437912 20.0596919 20.1913171 20.0596919 20.5598679 19.6911411 20.5598679 19.2436152 20.5598679 19.0856648 20.5072178 18.9277145 20.4282426 18.7960892 20.3755925 18.7171141 20.2966174 18.6381389 20.2176422 18.5854888L19.2699402 18.5854888 19.2699402 18.5854888zM22.0867211 18.5854888C21.9814209 18.6381389 21.8761206 18.7171141 21.7971455 18.7960892 21.6918453 18.9277145 21.6391952 19.0856648 21.6391952 19.2436152 21.6391952 19.5068657 21.7971455 19.7437912 22.0077459 19.8754165 22.2973215 19.4805406 22.534247 19.0593398 22.7448475 18.6118138 22.7185224 18.5854888 22.6921974 18.5854888 22.6658723 18.5591637L22.0867211 18.5854888 22.0867211 18.5854888zM12.1358503 20.6388431C12.004225 20.586193 11.8725998 20.5598679 11.7409745 20.5598679 11.6093492 20.5598679 11.4777239 20.586193 11.3460987 20.6388431L12.1358503 20.6388431 12.1358503 20.6388431zM10.7406224 18.8487393C10.6879723 18.9803646 10.6616472 19.1119899 10.6616472 19.2436152 10.6616472 19.8490914 11.1618233 20.3229424 11.7409745 20.3229424 12.3464508 20.3229424 12.8203018 19.8227664 12.8203018 19.2436152 12.8203018 19.1119899 12.7939767 19.0066897 12.7676516 18.8750644 12.478076 18.9277145 12.1621754 18.9540396 11.8462747 18.9540396 11.4513989 18.9803646 11.0828481 18.9277145 10.7406224 18.8487393L10.7406224 18.8487393z"/>
      <path d="M.394875824 16.5321345C.315900659 16.6637598.263250549 16.795385.263250549 16.9533354.263250549 17.0323105.263250549 17.0849607.289575604 17.1639358.368550769 17.5061615.684451428 17.7694121 1.07932725 17.7694121 1.44787802 17.7694121 1.76377868 17.5061615 1.8690789 17.1639358 1.89540396 17.1112857 1.89540396 17.0323105 1.89540396 16.9533354 1.89540396 16.795385 1.84275385 16.6374347 1.76377868 16.5321345L.394875824 16.5321345.394875824 16.5321345zM2.97473121 16.5321345C2.89575604 16.6637598 2.86943099 16.795385 2.86943099 16.9533354 2.86943099 17.0323105 2.86943099 17.0849607 2.89575604 17.1639358 3.00105626 17.5588116 3.34328198 17.8483872 3.76448286 17.8483872 4.18568373 17.8483872 4.5542345 17.5588116 4.63320967 17.1639358 4.65953472 17.0849607 4.65953472 17.0323105 4.65953472 16.9533354 4.65953472 16.795385 4.63320967 16.6637598 4.5542345 16.5321345L2.97473121 16.5321345 2.97473121 16.5321345zM5.52826154 16.5321345C5.47561143 16.6637598 5.42296132 16.795385 5.42296132 16.9533354 5.42296132 17.0323105 5.42296132 17.0849607 5.44928637 17.1639358 5.55458659 17.6114617 5.94946241 17.9536875 6.4233134 17.9536875 6.89716439 17.9536875 7.29204022 17.6114617 7.39734044 17.1639358 7.42366549 17.0849607 7.42366549 17.0323105 7.42366549 16.9533354 7.42366549 16.795385 7.39734044 16.6637598 7.31836527 16.5321345L5.52826154 16.5321345 5.52826154 16.5321345zM16.1635837 16.5321345C16.1109336 16.6637598 16.0582835 16.795385 16.0582835 16.9533354 16.0582835 17.0323105 16.0582835 17.0849607 16.0846086 17.1639358 16.1899088 17.6114617 16.5847846 17.9536875 17.0586356 17.9536875 17.5324866 17.9536875 17.9273624 17.6114617 18.0326626 17.1639358 18.0589877 17.0849607 18.0589877 17.0323105 18.0589877 16.9533354 18.0589877 16.795385 18.0326626 16.6637598 17.9536875 16.5321345L16.1635837 16.5321345 16.1635837 16.5321345zM18.9277145 16.5321345C18.8487393 16.6637598 18.8224143 16.795385 18.8224143 16.9533354 18.8224143 17.0323105 18.8224143 17.0849607 18.8487393 17.1639358 18.9540396 17.5588116 19.2962653 17.8483872 19.7174661 17.8483872 20.138667 17.8483872 20.5072178 17.5588116 20.586193 17.1639358 20.612518 17.0849607 20.612518 17.0323105 20.612518 16.9533354 20.612518 16.795385 20.586193 16.6637598 20.5072178 16.5321345L18.9277145 16.5321345 18.9277145 16.5321345zM21.6918453 16.5321345C21.6128701 16.6637598 21.56022 16.795385 21.56022 16.9533354 21.56022 17.0323105 21.56022 17.0849607 21.586545 17.1639358 21.6655202 17.5061615 21.9814209 17.7694121 22.3762967 17.7694121 22.7448475 17.7694121 23.0607481 17.5061615 23.1660483 17.1639358 23.1923734 17.1112857 23.1923734 17.0323105 23.1923734 16.9533354 23.1923734 16.795385 23.1397233 16.6374347 23.0607481 16.5321345L21.6918453 16.5321345 21.6918453 16.5321345zM1.36890286 18.5854888C1.28992769 18.5591637 1.18462747 18.5328387 1.07932725 18.5328387.974027032 18.5328387.895051868 18.5591637.816076703 18.5854888L.816076703 18.5854888 1.36890286 18.5854888 1.36890286 18.5854888zM4.21200879 18.5854888C4.08038351 18.5065136 3.92243318 18.4538635 3.76448286 18.4538635 3.60653253 18.4538635 3.4485822 18.5065136 3.31695692 18.5854888L4.21200879 18.5854888 4.21200879 18.5854888zM7.02878967 18.5854888C6.87083934 18.4538635 6.6602389 18.3485633 6.4233134 18.3485633 6.18638791 18.3485633 5.97578747 18.4275385 5.81783714 18.5854888L7.02878967 18.5854888 7.02878967 18.5854888zM9.81924549 18.5854888C9.6349701 18.4012134 9.37171956 18.2695881 9.08214395 18.2695881 8.79256835 18.2695881 8.5293178 18.4012134 8.34504241 18.5854888L9.81924549 18.5854888 9.81924549 18.5854888zM15.1369066 18.5854888C14.9526312 18.4012134 14.6893807 18.2695881 14.399805 18.2695881L14.2681798 18.2695881C14.1102294 18.4012134 13.9259541 18.4801886 13.7416787 18.5854888L15.1369066 18.5854888 15.1369066 18.5854888zM17.6641119 18.5854888C17.5061615 18.4538635 17.2955611 18.3485633 17.0586356 18.3485633 16.8217101 18.3485633 16.6111097 18.4275385 16.4531593 18.5854888L17.6641119 18.5854888 17.6641119 18.5854888zM20.1913171 18.5854888C20.0596919 18.5065136 19.9017415 18.4538635 19.7437912 18.4538635 19.5858409 18.4538635 19.4278905 18.5065136 19.2962653 18.5854888L20.1913171 18.5854888 20.1913171 18.5854888zM22.6658723 18.5854888C22.5868971 18.5591637 22.4815969 18.5328387 22.3762967 18.5328387 22.2709965 18.5328387 22.1656963 18.5591637 22.0867211 18.5854888L22.6658723 18.5854888 22.6658723 18.5854888zM14.5577554 18.0326626C15.0316064 17.9536875 15.4001571 17.6114617 15.4791323 17.1639358 15.4791323 17.1112857 15.5054574 17.0323105 15.5054574 16.9533354L15.5054574 16.8480352C15.4264822 16.9796604 15.347507 17.1376108 15.2422068 17.269236 15.0316064 17.5588116 14.7946809 17.8220622 14.5577554 18.0326626L14.5577554 18.0326626zM8.0028167 17.1639358C8.10811692 17.6641119 8.5293178 18.0589877 9.08214395 18.0589877L9.18744417 18.0589877C8.89786857 17.7957371 8.63461802 17.5061615 8.42401758 17.1376108 8.31871736 16.9533354 8.18709208 16.76906 8.10811692 16.5584596L8.10811692 16.5321345C8.05546681 16.6637598 8.02914175 16.795385 8.02914175 16.9533354 8.0028167 17.0323105 8.0028167 17.0849607 8.0028167 17.1639358L8.0028167 17.1639358zM.210600439 14.4787802C.210600439 14.5314303.184275385 14.6104055.184275385 14.6630556.184275385 15.0579314.447525934 15.4001571.816076703 15.5317824.895051868 15.5581075 1.00035209 15.5844325 1.10565231 15.5844325 1.21095253 15.5844325 1.28992769 15.5581075 1.36890286 15.5317824 1.73745363 15.4264822 2.00070417 15.0842565 2.00070417 14.6630556 2.00070417 14.6104055 2.00070417 14.5314303 1.97437912 14.4787802L.210600439 14.4787802.210600439 14.4787802zM2.79045582 14.4787802C2.79045582 14.5314303 2.76413077 14.6104055 2.76413077 14.6630556 2.76413077 15.0316064 2.97473121 15.347507 3.26430681 15.5317824 3.42225714 15.6107576 3.58020747 15.6634077 3.76448286 15.6634077 3.94875824 15.6634077 4.10670857 15.6107576 4.2646589 15.5317824 4.5542345 15.3738321 4.76483494 15.0316064 4.76483494 14.6630556 4.76483494 14.6104055 4.76483494 14.5314303 4.73850989 14.4787802L2.79045582 14.4787802 2.79045582 14.4787802zM5.34398615 14.4787802C5.34398615 14.5314303 5.3176611 14.6104055 5.3176611 14.6630556 5.3176611 15.0052813 5.47561143 15.321182 5.73886197 15.5317824 5.92313736 15.6634077 6.16006285 15.7687079 6.4233134 15.7687079 6.68656395 15.7687079 6.92348945 15.6897327 7.10776483 15.5317824 7.31836527 15.3738321 7.4763156 15.1105815 7.50264066 14.8210059 7.4763156 14.7157057 7.44999055 14.6104055 7.42366549 14.4787802L5.34398615 14.4787802 5.34398615 14.4787802zM16.2688839 14.4787802C16.2162338 14.7157057 16.1899088 14.9789563 16.1372587 15.1895567 16.2162338 15.321182 16.295209 15.4264822 16.4268343 15.5054574 16.6111097 15.6370826 16.8480352 15.7423828 17.1112857 15.7423828 17.3745363 15.7423828 17.6114617 15.6634077 17.7957371 15.5054574 18.0589877 15.2948569 18.216938 15.0052813 18.216938 14.6367305 18.216938 14.5840804 18.216938 14.5051053 18.190613 14.4524552L16.2688839 14.4787802 16.2688839 14.4787802zM18.7434391 14.4787802C18.7434391 14.5314303 18.7171141 14.6104055 18.7171141 14.6630556 18.7171141 15.0316064 18.9277145 15.347507 19.2172901 15.5317824 19.3752404 15.6107576 19.5331908 15.6634077 19.7174661 15.6634077 19.9017415 15.6634077 20.0596919 15.6107576 20.2176422 15.5317824 20.5072178 15.3738321 20.7178182 15.0316064 20.7178182 14.6630556 20.7178182 14.6104055 20.7178182 14.5314303 20.6914932 14.4787802L18.7434391 14.4787802 18.7434391 14.4787802zM21.5075699 14.4787802C21.5075699 14.5314303 21.4812448 14.6104055 21.4812448 14.6630556 21.4812448 15.0579314 21.7444954 15.4001571 22.1130461 15.5317824 22.1920213 15.5581075 22.2973215 15.5844325 22.4026217 15.5844325 22.507922 15.5844325 22.5868971 15.5581075 22.6921974 15.5317824 23.0607481 15.4264822 23.3239987 15.0842565 23.3239987 14.6630556 23.3239987 14.6104055 23.3239987 14.5314303 23.2976736 14.4787802L21.5075699 14.4787802 21.5075699 14.4787802zM1.79010374 16.5321345C1.65847846 16.295209 1.39522791 16.1372587 1.10565231 16.1372587.816076703 16.1372587.552826154 16.295209.421200879 16.5058094L1.79010374 16.5321345 1.79010374 16.5321345zM4.5542345 16.5321345C4.39628417 16.2425589 4.10670857 16.0582835 3.76448286 16.0582835 3.42225714 16.0582835 3.13268154 16.2425589 2.97473121 16.5321345L4.5542345 16.5321345 4.5542345 16.5321345zM7.31836527 16.5321345C7.16041494 16.1899088 6.81818923 15.9793083 6.4233134 15.9793083 6.02843758 15.9793083 5.68621187 16.2162338 5.52826154 16.5321345L7.31836527 16.5321345 7.31836527 16.5321345zM17.9536875 16.5321345C17.7957371 16.1899088 17.4535114 15.9793083 17.0586356 15.9793083 16.6637598 15.9793083 16.3215341 16.2162338 16.1635837 16.5321345L17.9536875 16.5321345 17.9536875 16.5321345zM20.5072178 16.5321345C20.3492675 16.2425589 20.0596919 16.0582835 19.7174661 16.0582835 19.3752404 16.0582835 19.0856648 16.2425589 18.9277145 16.5321345L20.5072178 16.5321345 20.5072178 16.5321345zM23.0870732 16.5321345C22.9554479 16.295209 22.6921974 16.1372587 22.4026217 16.1372587 22.1130461 16.1372587 21.8497956 16.295209 21.7181703 16.5058094L23.0870732 16.5321345 23.0870732 16.5321345zM20.2176422 15.5317824L19.2436152 15.5317824 20.2176422 15.5317824 20.2176422 15.5317824zM4.23833384 15.5317824L3.26430681 15.5317824 4.23833384 15.5317824 4.23833384 15.5317824z"/>
      <path d="M0.10530022,12.4254259 C0.10530022,12.5833763 0.15795033,12.7413266 0.236925494,12.8729519 C0.394875824,13.1625275 0.737101538,13.3731279 1.10565231,13.3731279 C1.47420308,13.3731279 1.79010374,13.1625275 1.97437912,12.8729519 C2.05335428,12.7413266 2.07967934,12.6097013 2.10600439,12.451751 L0.10530022,12.4254259 L0.10530022,12.4254259 Z M2.65883055,12.4254259 C2.65883055,12.5833763 2.71148066,12.7413266 2.76413077,12.8729519 C2.94840615,13.2415026 3.31695692,13.4784281 3.7381578,13.4784281 C4.15935868,13.4784281 4.52790945,13.2415026 4.71218483,12.8729519 C4.76483494,12.7413266 4.81748505,12.5833763 4.81748505,12.451751 L2.65883055,12.4254259 L2.65883055,12.4254259 Z M5.21236088,12.4254259 C5.21236088,12.5833763 5.26501099,12.7150015 5.3176611,12.8729519 C5.50193648,13.2941527 5.92313736,13.5837283 6.4233134,13.5837283 C6.76553912,13.5837283 7.05511472,13.4521031 7.29204022,13.2151776 C7.26571516,12.951927 7.26571516,12.6886765 7.26571516,12.4254259 L5.21236088,12.4254259 L5.21236088,12.4254259 Z M16.4268343,12.4254259 C16.4268343,12.7413266 16.4268343,13.0572272 16.4005092,13.3468028 C16.5847846,13.4784281 16.8217101,13.5574033 17.0849607,13.5574033 C17.5851367,13.5574033 17.9800125,13.2678277 18.190613,12.8466268 C18.2432631,12.7150015 18.2959132,12.5570512 18.2959132,12.3991009 L16.4268343,12.4254259 L16.4268343,12.4254259 Z M18.6381389,12.4254259 C18.6381389,12.5833763 18.690789,12.7413266 18.7434391,12.8729519 C18.9277145,13.2415026 19.2962653,13.4784281 19.7174661,13.4784281 C20.138667,13.4784281 20.5072178,13.2415026 20.6914932,12.8729519 C20.7704683,12.7413266 20.7967934,12.5833763 20.7967934,12.451751 L18.6381389,12.4254259 L18.6381389,12.4254259 Z M21.4022697,12.4254259 C21.4022697,12.5833763 21.4549198,12.7413266 21.5338949,12.8729519 C21.6918453,13.1625275 22.034071,13.3731279 22.4026217,13.3731279 C22.7711725,13.3731279 23.0870732,13.1625275 23.2713486,12.8729519 C23.3503237,12.7413266 23.3766488,12.6097013 23.4029738,12.451751 L21.4022697,12.4254259 L21.4022697,12.4254259 Z M1.97437912,14.4787802 C1.92172901,14.2155297 1.76377868,14.0049292 1.55317824,13.8733039 C1.42155297,13.7943288 1.26360264,13.7416787 1.10565231,13.7416787 C0.947701978,13.7416787 0.789751648,13.7943288 0.658126373,13.8733039 C0.421200879,14.0049292 0.263250549,14.2155297 0.210600439,14.4787802 L1.97437912,14.4787802 L1.97437912,14.4787802 Z M4.73850989,14.4787802 C4.68585978,14.2418547 4.5542345,14.0312543 4.36995912,13.8733039 C4.21200879,13.7416787 4.00140835,13.6627035 3.76448286,13.6627035 C3.52755736,13.6627035 3.31695692,13.7416787 3.15900659,13.8733039 C2.97473121,14.0312543 2.84310593,14.2155297 2.79045582,14.4787802 L4.73850989,14.4787802 L4.73850989,14.4787802 Z M7.42366549,14.4787802 C7.39734044,14.37348 7.39734044,14.2681798 7.37101538,14.1365545 C7.31836527,14.0312543 7.23939011,13.9522791 7.16041494,13.8733039 C6.9498145,13.6890286 6.68656395,13.5574033 6.39698835,13.5574033 C6.10741274,13.5574033 5.84416219,13.6627035 5.63356176,13.8733039 C5.47561143,14.0312543 5.37031121,14.2418547 5.3176611,14.4787802 L7.42366549,14.4787802 L7.42366549,14.4787802 Z M18.1379628,14.4787802 C18.0853127,14.2418547 17.9800125,14.0312543 17.8220622,13.8733039 C17.6114617,13.6890286 17.3482112,13.5574033 17.0586356,13.5574033 C16.76906,13.5574033 16.5321345,13.6627035 16.3478591,13.8469789 C16.3215341,14.0575793 16.295209,14.2681798 16.2688839,14.4787802 L18.1379628,14.4787802 L18.1379628,14.4787802 Z M20.6914932,14.4787802 C20.6388431,14.2418547 20.5072178,14.0312543 20.3229424,13.8733039 C20.1649921,13.7416787 19.9280666,13.6627035 19.7174661,13.6627035 C19.4805406,13.6627035 19.2699402,13.7416787 19.1119899,13.8733039 C18.9277145,14.0312543 18.7960892,14.2155297 18.7434391,14.4787802 L20.6914932,14.4787802 L20.6914932,14.4787802 Z M23.2713486,14.4787802 C23.2186984,14.2155297 23.0607481,14.0049292 22.8501477,13.8733039 C22.7185224,13.7943288 22.5605721,13.7416787 22.4026217,13.7416787 C22.2446714,13.7416787 22.0867211,13.7943288 21.9550958,13.8733039 C21.7444954,14.0049292 21.586545,14.2155297 21.5338949,14.4787802 L23.2713486,14.4787802 L23.2713486,14.4787802 Z M20.3492675,13.8733039 L19.1383149,13.8733039 L20.3492675,13.8733039 L20.3492675,13.8733039 Z M4.36995912,13.8733039 L3.15900659,13.8733039 L4.36995912,13.8733039 L4.36995912,13.8733039 Z"/>
      <path d="M.473850989 8.31871736C.631801318 8.47666769.842401758 8.58196791 1.07932725 8.58196791 1.31625275 8.58196791 1.52685319 8.47666769 1.68480352 8.31871736L.473850989 8.31871736.473850989 8.31871736zM3.02738132 8.31871736C3.18533165 8.5293178 3.4485822 8.68726813 3.76448286 8.68726813 4.05405846 8.68726813 4.31730901 8.55564285 4.50158439 8.31871736L3.02738132 8.31871736 3.02738132 8.31871736zM5.58091165 8.31871736C5.76518703 8.58196791 6.05476263 8.76624329 6.4233134 8.76624329 6.76553912 8.76624329 7.08143978 8.58196791 7.26571516 8.31871736L5.58091165 8.31871736 5.58091165 8.31871736zM16.2425589 8.31871736C16.4268343 8.58196791 16.7164099 8.76624329 17.0849607 8.76624329 17.4271864 8.76624329 17.743087 8.58196791 17.9273624 8.31871736L16.2425589 8.31871736 16.2425589 8.31871736zM19.0066897 8.31871736C19.16464 8.5293178 19.4278905 8.68726813 19.7437912 8.68726813 20.0333668 8.68726813 20.2966174 8.55564285 20.4808927 8.31871736L19.0066897 8.31871736 19.0066897 8.31871736zM21.7708204 8.31871736C21.9287708 8.47666769 22.1393712 8.58196791 22.3762967 8.58196791 22.6132222 8.58196791 22.8238226 8.47666769 22.981773 8.31871736L21.7708204 8.31871736 21.7708204 8.31871736zM2.07967934 12.4254259L2.07967934 12.3727758C2.07967934 12.1621754 2.02702923 11.9779 1.92172901 11.8462747 1.73745363 11.5830242 1.44787802 11.3987488 1.07932725 11.3987488.737101538 11.3987488.421200879 11.5830242.236925494 11.8462747.131625275 12.004225.0789751648 12.1885004.0789751648 12.3727758L.0789751648 12.4254259 2.07967934 12.4254259 2.07967934 12.4254259zM4.84381011 12.4254259L4.84381011 12.3727758C4.84381011 12.1885004 4.79116 12.004225 4.71218483 11.8462747 4.52790945 11.5303741 4.15935868 11.2934486 3.76448286 11.2934486 3.36960703 11.2934486 3.00105626 11.504049 2.81678088 11.8462747 2.73780571 12.004225 2.6851556 12.1885004 2.6851556 12.3727758L2.6851556 12.4254259 4.84381011 12.4254259 4.84381011 12.4254259zM7.23939011 12.4254259L7.23939011 12.1885004 7.23939011 11.6356743 7.23939011 11.504049C7.02878967 11.2934486 6.73921406 11.1618233 6.39698835 11.1618233 5.92313736 11.1618233 5.52826154 11.4250738 5.3176611 11.8199497 5.23868593 11.9779 5.18603582 12.1621754 5.18603582 12.3464508L5.18603582 12.3991009 7.23939011 12.4254259 7.23939011 12.4254259zM18.2695881 12.4254259L18.2695881 12.3727758C18.2695881 12.1885004 18.216938 12.004225 18.1379628 11.8462747 17.9273624 11.4513989 17.5324866 11.1881483 17.0586356 11.1881483 16.795385 11.1881483 16.5584596 11.2671235 16.3741842 11.3987488L16.4005092 11.6356743C16.4005092 11.8462747 16.4268343 12.0568752 16.4268343 12.2938007L16.4268343 12.4254259 18.2695881 12.4254259 18.2695881 12.4254259zM20.8231185 12.4254259L20.8231185 12.3727758C20.8231185 12.1885004 20.7704683 12.004225 20.6914932 11.8462747 20.5072178 11.5303741 20.138667 11.2934486 19.7437912 11.2934486 19.3489154 11.2934486 18.9803646 11.504049 18.7960892 11.8462747 18.7171141 12.004225 18.6644639 12.1885004 18.6644639 12.3727758L18.6644639 12.4254259 20.8231185 12.4254259 20.8231185 12.4254259zM23.3766488 12.4254259L23.3766488 12.3727758C23.3766488 12.1621754 23.3239987 11.9779 23.2186984 11.8462747 23.0344231 11.5830242 22.7448475 11.3987488 22.3762967 11.3987488 22.034071 11.3987488 21.7181703 11.5830242 21.5338949 11.8462747 21.4285947 12.004225 21.3759446 12.1885004 21.3759446 12.3727758L21.3759446 12.4254259 23.3766488 12.4254259 23.3766488 12.4254259zM21.6655202 10.6089971C21.8234705 10.8459226 22.0867211 10.9775479 22.4026217 10.9775479 22.6921974 10.9775479 22.9554479 10.8195976 23.1397233 10.6089971 23.2450235 10.4510468 23.3239987 10.2667714 23.3239987 10.082496 23.3239987 9.58231999 22.9291228 9.18744417 22.4289468 9.18744417 21.9287708 9.18744417 21.5338949 9.58231999 21.5338949 10.082496 21.4812448 10.2667714 21.56022 10.4510468 21.6655202 10.6089971L21.6655202 10.6089971zM18.9013894 10.6089971C19.0856648 10.8985727 19.3752404 11.0828481 19.7437912 11.0828481 20.0860169 11.0828481 20.4019176 10.8985727 20.586193 10.6089971 20.6914932 10.4510468 20.7441433 10.2667714 20.7441433 10.082496 20.7441433 9.52966988 20.2966174 9.08214395 19.7437912 9.08214395 19.190965 9.08214395 18.7434391 9.52966988 18.7434391 10.082496 18.7434391 10.2667714 18.7960892 10.4510468 18.9013894 10.6089971L18.9013894 10.6089971zM16.3478591 10.8985727C16.5321345 11.0828481 16.795385 11.1881483 17.0849607 11.1881483 17.4798365 11.1881483 17.8483872 10.9512229 18.0326626 10.6353222 18.1116378 10.4773719 18.1642879 10.2930965 18.1642879 10.1088211 18.1642879 9.50334483 17.6641119 9.02949384 17.0849607 9.02949384 16.6637598 9.02949384 16.295209 9.26641934 16.1109336 9.6349701 16.1899088 10.0035209 16.295209 10.4247218 16.3478591 10.8985727L16.3478591 10.8985727zM5.47561143 10.6089971C5.65988681 10.9512229 6.02843758 11.1618233 6.4233134 11.1618233 6.79186417 11.1618233 7.13408989 10.9775479 7.31836527 10.6879723 7.34469033 10.3720716 7.39734044 10.056171 7.4763156 9.76659538 7.34469033 9.31906945 6.92348945 8.97684373 6.4233134 8.97684373 5.81783714 8.97684373 5.34398615 9.47701978 5.34398615 10.056171 5.3176611 10.2667714 5.37031121 10.4510468 5.47561143 10.6089971L5.47561143 10.6089971zM2.9220811 10.6089971C3.10635648 10.8985727 3.42225714 11.0828481 3.76448286 11.0828481 4.10670857 11.0828481 4.42260923 10.8985727 4.60688461 10.6089971 4.71218483 10.4510468 4.76483494 10.2667714 4.76483494 10.082496 4.76483494 9.52966988 4.31730901 9.08214395 3.76448286 9.08214395 3.2116567 9.08214395 2.76413077 9.52966988 2.76413077 10.082496 2.76413077 10.2667714 2.81678088 10.4510468 2.9220811 10.6089971L2.9220811 10.6089971zM.368550769 10.6089971C.526501099 10.8459226.789751648 10.9775479 1.10565231 10.9775479 1.39522791 10.9775479 1.65847846 10.8195976 1.84275385 10.6089971 1.94805406 10.4510468 2.00070417 10.2667714 2.00070417 10.082496 2.00070417 9.58231999 1.60582835 9.18744417 1.10565231 9.18744417.605476263 9.18744417.210600439 9.58231999.210600439 10.082496.184275385 10.2667714.263250549 10.4510468.368550769 10.6089971L.368550769 10.6089971zM3.52755736 6.26536307C3.60653253 6.29168813 3.68550769 6.29168813 3.76448286 6.29168813 3.84345802 6.29168813 3.92243318 6.29168813 4.00140835 6.26536307L3.52755736 6.26536307 3.52755736 6.26536307zM5.94946241 6.26536307C6.08108769 6.34433824 6.23903802 6.39698835 6.39698835 6.39698835 6.55493868 6.39698835 6.71288901 6.34433824 6.84451428 6.26536307L5.94946241 6.26536307 5.94946241 6.26536307zM8.45034263 6.26536307C8.60829296 6.39698835 8.84521846 6.47596351 9.0558189 6.47596351 9.13479406 6.47596351 9.21376923 6.47596351 9.29274439 6.44963846 9.37171956 6.39698835 9.47701978 6.31801318 9.55599494 6.26536307L8.45034263 6.26536307 8.45034263 6.26536307zM13.899629 6.26536307C14.0049292 6.31801318 14.0839044 6.39698835 14.1892046 6.44963846 14.2681798 6.47596351 14.3208299 6.47596351 14.399805 6.47596351 14.6367305 6.47596351 14.847331 6.39698835 15.0052813 6.26536307L13.899629 6.26536307 13.899629 6.26536307zM16.6111097 6.26536307C16.7427349 6.34433824 16.9006853 6.39698835 17.0586356 6.39698835 17.2165859 6.39698835 17.3745363 6.34433824 17.5061615 6.26536307L16.6111097 6.26536307 16.6111097 6.26536307zM19.4805406 6.26536307C19.5595158 6.29168813 19.638491 6.29168813 19.7174661 6.29168813 19.7964413 6.29168813 19.8754165 6.29168813 19.9543916 6.26536307L19.4805406 6.26536307 19.4805406 6.26536307zM1.71112857 8.31871736C1.84275385 8.18709208 1.92172901 7.97649164 1.92172901 7.79221626 1.92172901 7.63426593 1.8690789 7.4763156 1.79010374 7.34469033 1.65847846 7.13408989 1.39522791 7.00246461 1.13197736 7.00246461.842401758 7.00246461.605476263 7.13408989.473850989 7.34469033.394875824 7.4763156.342225714 7.63426593.342225714 7.79221626.342225714 8.0028167.421200879 8.18709208.552826154 8.31871736L1.71112857 8.31871736 1.71112857 8.31871736zM4.47525934 8.31871736C4.58055956 8.16076703 4.65953472 7.97649164 4.65953472 7.79221626 4.65953472 7.63426593 4.60688461 7.4763156 4.52790945 7.34469033 4.36995912 7.08143978 4.08038351 6.89716439 3.76448286 6.89716439 3.4485822 6.89716439 3.15900659 7.08143978 3.00105626 7.34469033 2.9220811 7.4763156 2.86943099 7.63426593 2.86943099 7.79221626 2.86943099 8.0028167 2.9220811 8.18709208 3.05370637 8.31871736L4.47525934 8.31871736 4.47525934 8.31871736zM7.23939011 8.31871736C7.34469033 8.16076703 7.39734044 7.97649164 7.39734044 7.79221626 7.39734044 7.63426593 7.34469033 7.4763156 7.29204022 7.34469033 7.13408989 7.02878967 6.79186417 6.81818923 6.4233134 6.81818923 6.02843758 6.81818923 5.71253692 7.02878967 5.55458659 7.34469033 5.47561143 7.4763156 5.44928637 7.63426593 5.44928637 7.79221626 5.44928637 7.97649164 5.50193648 8.16076703 5.6072367 8.31871736L7.23939011 8.31871736 7.23939011 8.31871736zM17.9010374 8.31871736C18.0063376 8.16076703 18.0589877 7.97649164 18.0589877 7.79221626 18.0589877 7.63426593 18.0063376 7.4763156 17.9536875 7.34469033 17.7957371 7.02878967 17.4535114 6.81818923 17.0849607 6.81818923 16.6900848 6.81818923 16.3741842 7.02878967 16.2162338 7.34469033 16.1372587 7.4763156 16.1109336 7.63426593 16.1109336 7.79221626 16.1109336 7.97649164 16.1635837 8.16076703 16.2688839 8.31871736L17.9010374 8.31871736 17.9010374 8.31871736zM20.4545677 8.31871736C20.5598679 8.16076703 20.6388431 7.97649164 20.6388431 7.79221626 20.6388431 7.63426593 20.586193 7.4763156 20.5072178 7.34469033 20.3492675 7.08143978 20.0596919 6.89716439 19.7174661 6.89716439 19.4015655 6.89716439 19.1119899 7.08143978 18.9540396 7.34469033 18.8750644 7.4763156 18.8224143 7.63426593 18.8224143 7.79221626 18.8224143 8.0028167 18.8750644 8.18709208 19.0066897 8.31871736L20.4545677 8.31871736 20.4545677 8.31871736zM23.008098 8.31871736C23.1397233 8.18709208 23.2186984 7.97649164 23.2186984 7.79221626 23.2186984 7.63426593 23.1660483 7.4763156 23.0870732 7.34469033 22.9291228 7.13408989 22.6921974 7.00246461 22.4289468 7.00246461 22.1393712 7.00246461 21.9024457 7.13408989 21.7708204 7.34469033 21.6918453 7.4763156 21.6391952 7.63426593 21.6391952 7.79221626 21.6391952 8.0028167 21.7181703 8.18709208 21.8497956 8.31871736L23.008098 8.31871736 23.008098 8.31871736zM15.4791323 8.02914175C15.5054574 7.95016659 15.5054574 7.87119142 15.5054574 7.79221626 15.5054574 7.63426593 15.4791323 7.4763156 15.4001571 7.34469033 15.2422068 7.00246461 14.8999811 6.73921406 14.4787802 6.71288901L14.5051053 6.73921406C14.7683558 6.97613956 15.0052813 7.26571516 15.2158818 7.60794088 15.2948569 7.71324109 15.3738321 7.87119142 15.4791323 8.02914175L15.4791323 8.02914175zM9.00316879 6.71288901L9.00316879 6.71288901C8.60829296 6.71288901 8.23974219 6.97613956 8.08179186 7.31836527 8.02914175 7.44999055 7.97649164 7.60794088 7.97649164 7.7658912 7.97649164 7.87119142 7.97649164 7.97649164 8.02914175 8.05546681 8.13444197 7.81854131 8.26606725 7.60794088 8.39769252 7.39734044 8.58196791 7.16041494 8.79256835 6.92348945 9.00316879 6.71288901L9.00316879 6.71288901z"/>
      <path d="M4.00140835 6.26536307C4.2646589 6.18638791 4.47525934 5.97578747 4.5542345 5.68621187 4.58055956 5.63356176 4.58055956 5.55458659 4.58055956 5.47561143 4.58055956 5.02808549 4.21200879 4.65953472 3.76448286 4.65953472 3.31695692 4.65953472 2.94840615 5.02808549 2.94840615 5.47561143 2.94840615 5.55458659 2.94840615 5.6072367 2.97473121 5.68621187 3.05370637 5.94946241 3.26430681 6.18638791 3.52755736 6.26536307L4.00140835 6.26536307 4.00140835 6.26536307zM6.87083934 6.26536307C7.08143978 6.1337378 7.23939011 5.92313736 7.29204022 5.68621187 7.31836527 5.63356176 7.31836527 5.55458659 7.31836527 5.47561143 7.31836527 4.97543538 6.92348945 4.58055956 6.4233134 4.58055956 5.92313736 4.58055956 5.52826154 4.97543538 5.52826154 5.47561143 5.52826154 5.55458659 5.52826154 5.6072367 5.55458659 5.68621187 5.6072367 5.92313736 5.76518703 6.1337378 5.97578747 6.26536307L6.87083934 6.26536307 6.87083934 6.26536307zM9.60864505 6.26536307C9.68762021 6.21271296 9.76659538 6.16006285 9.84557054 6.1337378 9.95087076 6.00211252 10.0298459 5.84416219 10.056171 5.68621187 10.056171 5.63356176 10.082496 5.55458659 10.082496 5.50193648 10.082496 4.94911033 9.6349701 4.50158439 9.08214395 4.50158439 8.5293178 4.50158439 8.08179186 4.94911033 8.08179186 5.50193648 8.08179186 5.58091165 8.08179186 5.63356176 8.10811692 5.71253692 8.16076703 5.94946241 8.2923923 6.16006285 8.45034263 6.29168813L9.60864505 6.26536307 9.60864505 6.26536307zM15.0052813 6.26536307C15.1895567 6.1337378 15.321182 5.92313736 15.3738321 5.68621187 15.3738321 5.63356176 15.4001571 5.55458659 15.4001571 5.50193648 15.4001571 4.94911033 14.9526312 4.50158439 14.399805 4.50158439 13.8469789 4.50158439 13.399453 4.94911033 13.399453 5.50193648 13.399453 5.58091165 13.399453 5.63356176 13.425778 5.71253692 13.4521031 5.87048725 13.5310782 6.00211252 13.6363785 6.1337378 13.7416787 6.18638791 13.8206538 6.23903802 13.899629 6.29168813L15.0052813 6.29168813 15.0052813 6.26536307zM17.5324866 6.26536307C17.743087 6.1337378 17.9010374 5.92313736 17.9536875 5.68621187 17.9800125 5.63356176 17.9800125 5.55458659 17.9800125 5.47561143 17.9800125 4.97543538 17.5851367 4.58055956 17.0849607 4.58055956 16.5847846 4.58055956 16.1899088 4.97543538 16.1899088 5.47561143 16.1899088 5.55458659 16.1899088 5.6072367 16.2162338 5.68621187 16.2688839 5.92313736 16.4268343 6.1337378 16.6374347 6.26536307L17.5324866 6.26536307 17.5324866 6.26536307zM19.9543916 6.26536307C20.2176422 6.18638791 20.4282426 5.97578747 20.5072178 5.68621187 20.5335428 5.63356176 20.5335428 5.55458659 20.5335428 5.47561143 20.5335428 5.02808549 20.1649921 4.65953472 19.7174661 4.65953472 19.2699402 4.65953472 18.9013894 5.02808549 18.9013894 5.47561143 18.9013894 5.55458659 18.9013894 5.6072367 18.9277145 5.68621187 19.0066897 5.94946241 19.2172901 6.18638791 19.4805406 6.26536307L19.9543916 6.26536307 19.9543916 6.26536307zM21.6918453 5.68621187C21.7708204 6.00211252 22.060396 6.21271296 22.4026217 6.21271296 22.5605721 6.21271296 22.6921974 6.16006285 22.7974976 6.08108769 22.5868971 5.65988681 22.3236466 5.23868593 22.034071 4.84381011 21.7971455 4.97543538 21.6391952 5.21236088 21.6391952 5.47561143 21.6655202 5.55458659 21.6655202 5.63356176 21.6918453 5.68621187L21.6918453 5.68621187zM10.6616472 5.68621187L10.6616472 5.68621187C10.6616472 5.73886197 10.6879723 5.76518703 10.6879723 5.81783714 11.003873 5.73886197 11.3724237 5.71253692 11.7409745 5.71253692 12.1095253 5.71253692 12.451751 5.73886197 12.7676516 5.81783714 12.7676516 5.79151208 12.7939767 5.73886197 12.7939767 5.68621187 12.7939767 5.63356176 12.8203018 5.55458659 12.8203018 5.50193648 12.8203018 4.89646022 12.3201257 4.42260923 11.7409745 4.42260923 11.1354982 4.42260923 10.6616472 4.92278527 10.6616472 5.50193648L10.6616472 5.68621187 10.6616472 5.68621187zM.763426593 6.1337378C.868726813 6.18638791.974027032 6.21271296 1.07932725 6.21271296 1.42155297 6.21271296 1.68480352 5.97578747 1.79010374 5.68621187 1.81642879 5.63356176 1.81642879 5.55458659 1.81642879 5.47561143 1.81642879 5.23868593 1.68480352 5.00176044 1.50052813 4.87013516 1.23727758 5.29133604 1.00035209 5.71253692.763426593 6.1337378L.763426593 6.1337378zM11.2407985 4.05405846C11.3987488 4.13303362 11.5566991 4.18568373 11.7409745 4.18568373 11.9252499 4.18568373 12.0832002 4.13303362 12.2411505 4.05405846 12.5307261 3.86978307 12.7413266 3.55388242 12.7413266 3.2116567 12.7413266 2.89575604 12.5833763 2.60618044 12.3464508 2.42190505 12.1885004 2.29027978 11.9779 2.21130461 11.7409745 2.21130461 11.504049 2.21130461 11.2934486 2.29027978 11.1354982 2.42190505 10.8985727 2.60618044 10.7406224 2.89575604 10.7406224 3.2116567 10.7406224 3.55388242 10.9512229 3.86978307 11.2407985 4.05405846L11.2407985 4.05405846zM3.02738132 3.13268154L3.02738132 3.18533165C3.02738132 3.58020747 3.34328198 3.92243318 3.76448286 3.92243318 4.15935868 3.92243318 4.50158439 3.60653253 4.50158439 3.18533165 4.50158439 2.79045582 4.21200879 2.47455516 3.84345802 2.44823011 3.55388242 2.6851556 3.29063187 2.89575604 3.02738132 3.13268154L3.02738132 3.13268154zM19.7174661 2.47455516C19.3225903 2.47455516 18.9803646 2.79045582 18.9803646 3.2116567 18.9803646 3.60653253 19.2962653 3.94875824 19.7174661 3.94875824 20.112342 3.94875824 20.4545677 3.63285758 20.4545677 3.2116567 20.4545677 3.13268154 20.4545677 3.08003143 20.4282426 3.00105626 20.2439672 2.81678088 20.0333668 2.65883055 19.8227664 2.47455516L19.7174661 2.47455516 19.7174661 2.47455516zM16.8743602 2.42190505C16.5058094 2.50088022 16.2688839 2.81678088 16.2688839 3.2116567 16.2688839 3.65918264 16.6374347 4.0277334 17.0849607 4.0277334 17.5324866 4.0277334 17.9010374 3.65918264 17.9010374 3.2116567 17.9010374 2.81678088 17.6377868 2.50088022 17.2955611 2.42190505 17.242911 2.39558 17.1639358 2.39558 17.1112857 2.39558 17.0059855 2.39558 16.9270103 2.39558 16.8743602 2.42190505L16.8743602 2.42190505zM6.21271296 2.42190505C5.84416219 2.50088022 5.6072367 2.81678088 5.6072367 3.2116567 5.6072367 3.65918264 5.97578747 4.0277334 6.4233134 4.0277334 6.87083934 4.0277334 7.23939011 3.65918264 7.23939011 3.2116567 7.23939011 2.81678088 6.97613956 2.50088022 6.63391384 2.42190505 6.58126373 2.39558 6.50228857 2.39558 6.44963846 2.39558 6.34433824 2.39558 6.29168813 2.39558 6.21271296 2.42190505L6.21271296 2.42190505zM14.1102294 4.05405846C14.1892046 4.08038351 14.2945048 4.10670857 14.399805 4.10670857 14.5051053 4.10670857 14.6104055 4.08038351 14.6893807 4.05405846 15.0316064 3.94875824 15.2948569 3.60653253 15.2948569 3.2116567 15.2948569 2.86943099 15.1105815 2.57985538 14.847331 2.42190505 14.7157057 2.34292989 14.5577554 2.31660483 14.399805 2.31660483 14.2418547 2.31660483 14.0839044 2.36925494 13.9522791 2.42190505 13.6890286 2.57985538 13.4784281 2.86943099 13.4784281 3.2116567 13.5047532 3.58020747 13.7680037 3.92243318 14.1102294 4.05405846L14.1102294 4.05405846zM14.847331 2.42190505L13.9786042 2.42190505 14.847331 2.42190505 14.847331 2.42190505zM8.79256835 4.05405846C8.87154351 4.08038351 8.97684373 4.10670857 9.08214395 4.10670857 9.18744417 4.10670857 9.29274439 4.08038351 9.37171956 4.05405846 9.71394527 3.94875824 9.97719582 3.60653253 9.97719582 3.2116567 9.97719582 2.86943099 9.79292043 2.57985538 9.52966988 2.42190505 9.39804461 2.34292989 9.24009428 2.31660483 9.08214395 2.31660483 8.92419362 2.31660483 8.76624329 2.36925494 8.63461802 2.42190505 8.37136747 2.57985538 8.16076703 2.86943099 8.16076703 3.2116567 8.18709208 3.58020747 8.42401758 3.92243318 8.79256835 4.05405846L8.79256835 4.05405846zM9.52966988 2.42190505L8.66094307 2.42190505 9.52966988 2.42190505 9.52966988 2.42190505zM16.3478591.763426593L16.3478591.895051868C16.3478591 1.28992769 16.6637598 1.63215341 17.0849607 1.63215341 17.4008613 1.63215341 17.6641119 1.44787802 17.7694121 1.15830242 17.3482112.947701978 16.8743602.763426593 16.4268343.605476263 16.3741842.658126373 16.3478591.710776483 16.3478591.763426593L16.3478591.763426593zM13.6100534.763426593L13.6100534.895051868C13.6100534 1.3425778 13.9786042 1.71112857 14.4261301 1.71112857 14.873656 1.71112857 15.2422068 1.3425778 15.2422068.895051868L15.2422068.763426593C15.1895567.526501099 15.0579314.315900659 14.847331.184275385 14.6630556.15795033 14.4787802.10530022 14.2945048.0789751648 13.9259541.15795033 13.6627035.447525934 13.6100534.763426593L13.6100534.763426593zM10.8459226.763426593L10.8459226.895051868C10.8459226 1.39522791 11.2407985 1.79010374 11.7409745 1.79010374 12.2411505 1.79010374 12.6360264 1.39522791 12.6360264.895051868L12.6360264.763426593C12.5833763.342225714 12.1885004 0 11.7409745 0 11.2934486 0 10.9248978.342225714 10.8459226.763426593L10.8459226.763426593zM8.2923923.763426593L8.2923923.895051868C8.2923923 1.3425778 8.66094307 1.71112857 9.10846901 1.71112857 9.55599494 1.71112857 9.92454571 1.3425778 9.92454571.895051868L9.92454571.763426593C9.8718956.447525934 9.6349701.210600439 9.3453945.131625275 9.10846901.15795033 8.87154351.210600439 8.63461802.263250549 8.42401758.394875824 8.31871736.552826154 8.2923923.763426593L8.2923923.763426593zM5.76518703 1.23727758C5.8968123 1.47420308 6.1337378 1.63215341 6.4233134 1.63215341 6.81818923 1.63215341 7.16041494 1.31625275 7.16041494.895051868L7.16041494.763426593C7.16041494.737101538 7.16041494.710776483 7.13408989.658126373 6.6602389.842401758 6.21271296 1.02667714 5.76518703 1.23727758L5.76518703 1.23727758z"/>
      <ellipse cx="1.079" cy="14.584" rx=".895" ry=".527"/>
      <ellipse cx="3.764" cy="14.531" rx=".974" ry=".527"/>
      <ellipse cx="6.45" cy="14.558" rx=".974" ry=".527"/>
      <ellipse cx="9.082" cy="18.849" rx=".842" ry=".527"/>
      <ellipse cx="6.423" cy="18.875" rx=".737" ry=".527"/>
      <ellipse cx="3.738" cy="18.98" rx=".658" ry=".527"/>
      <ellipse cx="1.079" cy="16.769" rx=".763" ry=".527"/>
      <ellipse cx="1.158" cy="12.399" rx=".921" ry=".527"/>
      <ellipse cx="3.817" cy="12.399" rx="1.027" ry=".527"/>
      <ellipse cx="6.239" cy="12.452" rx="1" ry=".527"/>
      <ellipse cx="6.476" cy="16.69" rx=".869" ry=".527"/>
      <ellipse cx="3.712" cy="16.743" rx=".842" ry=".527"/>
      <ellipse cx="3.764" cy="8.055" rx=".79" ry=".527"/>
      <ellipse cx="1.106" cy="8.029" rx=".711" ry=".474"/>
      <ellipse cx="6.423" cy="8.055" rx=".921" ry=".527"/>
      <ellipse cx="6.423" cy="5.844" rx=".763" ry=".5"/>
      <ellipse cx="9.003" cy="5.923" rx=".711" ry=".5"/>
      <ellipse cx="14.452" cy="5.923" rx=".737" ry=".527"/>
      <ellipse cx="17.059" cy="5.844" rx=".737" ry=".527"/>
      <ellipse cx="17.059" cy="8.082" rx=".921" ry=".527"/>
      <ellipse cx="19.717" cy="8.082" rx=".79" ry=".527"/>
      <ellipse cx="22.403" cy="7.976" rx=".763" ry=".527"/>
      <ellipse cx="19.717" cy="12.425" rx="1.079" ry=".527"/>
      <ellipse cx="22.376" cy="12.425" rx=".974" ry=".527"/>
      <ellipse cx="17.322" cy="12.425" rx=".895" ry=".527"/>
      <ellipse cx="19.717" cy="14.531" rx=".974" ry=".527"/>
      <ellipse cx="22.376" cy="14.531" rx=".895" ry=".527"/>
      <ellipse cx="17.19" cy="14.505" rx=".921" ry=".527"/>
      <ellipse cx="17.059" cy="16.664" rx=".921" ry=".527"/>
      <ellipse cx="19.717" cy="16.664" rx=".816" ry=".527"/>
      <ellipse cx="17.059" cy="18.901" rx=".737" ry=".527"/>
      <ellipse cx="19.744" cy="18.954" rx=".684" ry=".527"/>
      <ellipse cx="22.35" cy="18.717" rx=".342" ry=".184"/>
      <ellipse cx="22.376" cy="16.716" rx=".737" ry=".527"/>
      <ellipse cx="14.426" cy="18.928" rx=".869" ry=".527"/>
    </g>
  </g>
</svg>
