<svg xmlns="http://www.w3.org/2000/svg" width="113" height="29" viewBox="0 0 113 29">
  <path fill="#0F0B0B" fill-rule="evenodd" d="M1170.20931,1325.36817 L1178.20002,1325.36817 L1172.385,1316.23027 C1175.62875,1314.60839 1177.40886,1311.56242 1177.40886,1307.32972 C1177.40886,1301.15867 1173.21572,1297.67757 1165.89749,1297.67757 L1153.51583,1297.67757 L1153.51583,1325.36817 L1160.55716,1325.36817 L1160.55716,1317.57524 L1166.09528,1317.57524 L1170.20931,1325.36817 Z M1160.55716,1312.03712 L1160.55716,1303.21569 L1165.89749,1303.21569 C1168.94345,1303.21569 1170.72356,1304.67933 1170.72356,1307.56707 C1170.72356,1310.49436 1168.94345,1312.03712 1165.89749,1312.03712 L1160.55716,1312.03712 Z M1195.67758,1297.44022 C1187.25173,1297.44022 1180.88289,1303.45304 1180.88289,1311.44375 C1180.88289,1319.55314 1187.0935,1325.68463 1195.44024,1325.68463 C1199.51471,1325.68463 1203.90565,1323.66717 1206.8725,1320.62121 L1202.75847,1316.26983 C1200.82012,1318.24773 1198.13018,1319.51358 1195.79626,1319.51358 C1191.40532,1319.51358 1188.08245,1315.99292 1188.08245,1311.36463 C1188.08245,1306.81546 1191.40532,1303.33436 1195.79626,1303.33436 C1198.24885,1303.33436 1200.9388,1304.71889 1202.75847,1306.93414 L1206.83294,1302.10806 C1204.06388,1299.25989 1199.79162,1297.44022 1195.67758,1297.44022 Z M1228.66188,1325.36817 L1237.08773,1325.36817 L1226.13017,1309.14939 L1236.41525,1297.67757 L1228.2663,1297.67757 L1217.66476,1309.66364 L1217.66476,1297.67757 L1210.62343,1297.67757 L1210.62343,1325.36817 L1217.66476,1325.36817 L1217.66476,1318.56419 L1221.34365,1314.48972 L1228.66188,1325.36817 Z M1261.88352,1303.33436 L1261.88352,1297.63801 L1238.22784,1297.63801 L1238.22784,1303.33436 L1246.49546,1303.33436 L1246.49546,1325.36817 L1253.53679,1325.36817 L1253.53679,1303.33436 L1261.88352,1303.33436 Z M1262.30837,1319.07844 C1260.37003,1319.07844 1259.02506,1320.42342 1259.02506,1322.36176 C1259.02506,1324.33966 1260.37003,1325.68463 1262.30837,1325.68463 C1264.24671,1325.68463 1265.63124,1324.33966 1265.63124,1322.36176 C1265.63124,1320.42342 1264.24671,1319.07844 1262.30837,1319.07844 Z" transform="translate(-1153 -1297)"/>
</svg>
