<svg xmlns="http://www.w3.org/2000/svg" width="94" height="62" viewBox="0 0 94 62">
  <g fill="none" fill-rule="evenodd" transform="translate(.727 .287)">
    <polyline fill="#698A96" points="34.958 35.427 38.999 22.456 30.565 15.971 8.738 37.363 32.193 37.363 34.94 35.487 34.958 35.427"/>
    <polyline fill="#698A96" points="62.013 15.971 53.58 22.456 57.633 35.483 60.386 37.363 83.84 37.363 62.013 15.971"/>
    <polyline fill="#17A748" points="58.08 8.603 49.177 8.581 46.289 .037 43.399 8.581 34.499 8.603 41.615 14.075 39.001 22.465 46.289 17.473 53.574 22.465 50.964 14.075 58.08 8.603"/>
    <polyline fill="#17A748" points="46.319 27.755 46.289 27.735 32.193 37.363 60.386 37.363 46.319 27.755"/>
    <path fill="#698A96" d="M0 47.932541L0 46.5705917 2.29902137 46.5705917 2.29902137 43.6185373 4.00202298 42.8805494 4.00202298 46.5705917 6.8970641 46.5705917 6.8970641 47.932541 4.00202298 47.932541 4.00202298 57.1286264C4.00202298 59.0301986 4.20049078 59.4852774 5.56305644 59.4852774 6.13051819 59.4852774 6.52807014 59.4568221 6.8970641 59.3997062L6.8970641 60.8757847C6.38599925 60.932798 5.8185375 60.9612532 5.27901738 60.9612532 2.97999602 60.9612532 2.29902137 59.9392263 2.29902137 58.1792114L2.29902137 47.932541 0 47.932541M16.973722 52.7301815C16.973722 49.5511013 16.4633762 47.6485019 13.7382449 47.6485019 11.0138327 47.6485019 10.5027679 49.5511013 10.5027679 52.7301815L16.973722 52.7301815zM10.5027679 54.0922335L10.5027679 55.1987017C10.5027679 57.1857424 11.0416716 59.8251997 13.7382449 59.8251997 15.8673565 59.8251997 16.9173251 58.4632504 16.8887671 56.533223L18.6768263 56.533223C18.4783586 59.9963423 16.6053444 61.188279 13.7382449 61.188279 11.2693138 61.188279 8.79966351 60.1948101 8.79966351 55.8522484L8.79966351 52.3321159C8.79966351 48.188022 10.5312231 46.2865526 13.7382449 46.2865526 18.6768263 46.2865526 18.6768263 49.8340104 18.6768263 54.0922335L10.5027679 54.0922335 10.5027679 54.0922335zM28.1586972 50.6861275C28.2436521 48.8975547 27.5906191 47.6485019 25.6326501 47.6485019 24.5820651 47.6485019 23.7026227 48.2450353 23.3336287 49.2956203 23.1059865 49.9481396 22.9360767 51.9066223 22.9360767 53.8081945 22.9360767 56.3906385 22.9360767 59.8251997 25.5755341 59.8251997 27.8181585 59.8251997 28.1015812 58.4062372 28.1866389 56.6746776L29.8896405 56.6746776C30.0316086 60.5347324 27.3071964 61.188279 25.973086 61.188279 21.1195622 61.188279 21.1195622 57.3556522 21.1195622 53.8081945 21.1195622 52.3891292 21.1760619 50.1466074 21.5450558 49.0686972 22.2830437 47.0245405 23.9010905 46.2865526 25.8596759 46.2865526 28.328607 46.2865526 30.0031534 47.6770599 29.8616988 50.6861275L28.1586972 50.6861275M32.8143696 60.9043427L32.8143696 40.4108991 34.5173712 40.4108991 34.5173712 48.3306065 34.5743845 48.3306065C35.39743 47.1386698 36.5044119 46.2865526 38.0368873 46.2865526 41.5850642 46.2865526 41.9540581 48.9260099 41.9540581 50.7991268L41.9540581 60.9043427 40.2509538 60.9043427 40.2509538 50.8845953C40.2509538 49.2101517 39.5979208 47.6485019 37.6113937 47.6485019 36.0784047 47.6485019 34.5173712 48.6990869 34.5173712 51.9066223L34.5173712 60.9043427 32.8143696 60.9043427M49.2212462 61.188279C46.1277373 61.188279 44.9072425 59.6837452 44.9351841 56.6462223L46.666641 56.6462223C46.666641 58.604705 47.121309 59.910771 49.3067147 59.910771 50.9528058 59.910771 51.747807 58.9743153 51.747807 57.3841075 51.747807 53.6381819 45.3041781 54.6031956 45.3041781 49.8625684 45.3041781 47.2230083 47.121309 46.2865526 49.6181818 46.2865526 52.4573396 46.2865526 53.3653401 48.2450353 53.3653401 50.4306465L51.6907937 50.4306465C51.6052225 48.6135156 51.1227156 47.6485019 49.1926882 47.6485019 47.9721934 47.6485019 47.0071797 48.4436058 47.0071797 49.7211138 47.0071797 53.2971296 53.4508086 52.3321159 53.4508086 57.1286264 53.4508086 59.8251997 51.8892615 61.188279 49.2212462 61.188279M55.1834982 47.932541L55.1834982 46.5705917 57.4820059 46.5705917 57.4820059 43.6185373 59.1850076 42.8805494 59.1850076 46.5705917 62.0800487 46.5705917 62.0800487 47.932541 59.1850076 47.932541 59.1850076 57.1286264C59.1850076 59.0301986 59.3834754 59.4852774 60.7466574 59.4852774 61.3135028 59.4852774 61.7116711 59.4568221 62.0800487 59.3997062L62.0800487 60.8757847C61.5690866 60.932798 61.0010084 60.9612532 60.4626183 60.9612532 58.1629806 60.9612532 57.4820059 59.9392263 57.4820059 58.1792114L57.4820059 47.932541 55.1834982 47.932541M71.6457445 53.5811687C69.2047549 53.6667399 65.5157399 53.3827009 65.5157399 56.8731454 65.5157399 58.4917057 66.3381691 59.8251997 68.0982867 59.8251997 70.0567694 59.8251997 71.6457445 58.0651849 71.6457445 56.1921707L71.6457445 53.5811687zM71.7598737 59.1442251L71.7028604 59.1442251C70.79486 60.5061744 69.4043527 61.188279 67.6443378 61.188279 65.089219 61.188279 63.6987118 59.4568221 63.6987118 56.9587166 63.6987118 51.9351803 68.7507033 52.4462452 71.6457445 52.2192194L71.6457445 51.0271799C71.6457445 48.9260099 71.0217831 47.6485019 68.7507033 47.6485019 67.1902862 47.6485019 65.9412335 48.4150478 65.9412335 50.1180494L64.1241026 50.1180494C64.2667899 47.3655928 66.3952851 46.2865526 68.8932879 46.2865526 70.3409111 46.2865526 73.3488488 46.4291371 73.3488488 50.0895942L73.3488488 57.2997689C73.3488488 58.3206659 73.3488488 59.2297964 73.5198886 60.9043427L71.7598737 60.9043427 71.7598737 59.1442251 71.7598737 59.1442251zM78.4875416 48.5006191L78.5445549 48.5006191C79.2540876 47.1386698 80.7586214 46.2865526 82.490181 46.2865526L82.490181 48.0181122C80.0776467 47.8196444 78.4875416 49.267165 78.4875416 51.6796992L78.4875416 60.9043427 76.78454 60.9043427 76.78454 46.5705917 78.4875416 46.5705917 78.4875416 48.5006191M88.2243799 61.188279C85.130871 61.188279 83.9102735 59.6837452 83.9388315 56.6462223L85.6703912 56.6462223C85.6703912 58.604705 86.12434 59.910771 88.3098485 59.910771 89.9559396 59.910771 90.7509407 58.9743153 90.7509407 57.3841075 90.7509407 53.6381819 84.3072091 54.6031956 84.3072091 49.8625684 84.3072091 47.2230083 86.12434 46.2865526 88.6213155 46.2865526 91.4604734 46.2865526 92.3684738 48.2450353 92.3684738 50.4306465L90.6939275 50.4306465C90.6083562 48.6135156 90.1258494 47.6485019 88.195822 47.6485019 86.9753272 47.6485019 86.0103135 48.4436058 86.0103135 49.7211138 86.0103135 53.2971296 92.4539424 52.3321159 92.4539424 57.1286264 92.4539424 59.8251997 90.8923953 61.188279 88.2243799 61.188279"/>
  </g>
</svg>
