<svg xmlns="http://www.w3.org/2000/svg" width="126" height="61" viewBox="0 0 126 61">
  <g fill="#000000" fill-rule="evenodd" transform="translate(.064 .67)">
    <path d="M83.7147138 38.5439399C83.4878681 38.2381158 83.7533596 37.7827496 83.7533596 37.7827496L67.1584512 37.7827496 69.0068092 39.3975366C69.415129 39.5605328 69.9259495 39.967171 70.1595155 40.5905682 70.7140227 42.0591844 69.8906637 40.8678142 69.8906637 43.0875398 69.8906637 45.1308084 69.3143081 44.7997879 69.3143081 44.7997879 69.3143081 44.7997879 69.1916556 47.2127475 67.943163 48.6947944 67.1483753 49.4929553 67.7650513 50.1533163 67.7650513 50.1533163 67.7650513 50.1533163 67.4978794 50.3045451 67.10805 52.0537638 66.9820176 52.6200453 67.7079171 53.4937987 68.3380405 53.2753549 68.8085339 53.1123704 67.1920553 52.9560953 68.9429606 52.2184349 69.6201321 51.9327861 69.0673048 51.3933894 69.0673048 51.3933894 69.0673048 51.3933894 70.2048821 51.3060226 70.8434081 49.5903963 71.9725895 49.7550791 71.5541888 49.0627804 73.8797582 48.5620425 74.49644 48.4276091 74.6258314 48.2444694 74.550208 47.6647457 74.4729166 47.085042 75.3080432 47.7487577 77.6134425 45.3963121 79.4315574 43.5412312 78.7762298 43.1245054 80.0331172 42.4507021 81.3588947 41.7432795 81.4832393 42.5111959 81.9268434 41.9348285 82.9400885 40.615778 82.5838512 40.6997901 83.0072985 39.8596357L83.3047209 39.3941751C83.3047209 39.3941751 83.94324 38.8480706 83.7147138 38.5439399M91.3501197 39.2043009C87.5357834 51.0892519 76.8068925 60.3344102 63.211362 60.3344102 48.7941603 60.3344102 39.1003519 51.2136095 35.2070437 39.4614036 39.2583069 50.4087274 50.2762071 58.2575241 63.2315255 58.2575241 76.2876649 58.2575241 87.3845487 50.2843833 91.3501197 39.2043009M67.8406623 19.5730422C66.8156683 19.6032916 66.8055857 18.7681651 66.0880889 18.9210738 65.3705803 19.0739892 65.4949311 18.3043995 64.9723482 18.2943237 64.5858735 18.2842293 64.0397623 18.1010695 63.8582891 18.3749693 63.5608778 18.8219395 64.2044384 18.1851017 64.8698474 18.7530496 65.8158707 19.557925 65.7402529 19.0101272 66.3048528 19.4688599 66.6694741 19.7679627 66.3720578 19.9393416 66.5888285 19.8301264 66.9971398 19.625135 67.6356726 19.930959 67.6356726 19.930959 67.6356726 19.930959 68.8690228 19.5428095 67.8406623 19.5730422M71.7491111 21.0567756C71.8952919 21.0567756 72.0986152 21.0214899 72.1170971 20.8383368 71.9709163 20.7627258 71.858333 20.6703059 71.6751732 20.6887829L71.7491111 21.0567756M68.4287804 20.6887829L68.6505789 20.6887829C68.8354186 20.6350018 68.9816128 20.8551389 69.0185717 20.9845176 69.5713974 20.5409205 70.1998425 20.6703059 70.7896405 20.5409205 70.1998425 20.3006266 69.7024694 19.8234052 69.0185717 19.8032485 68.1347239 19.8234052 68.9446405 20.2653409 68.4287804 20.6887829M63.211362.0610913026C48.0480989.0610913026 38.9776994 9.21718448 35.1415019 21.0718978 38.1576951 12.7475462 45.194902 6.18924725 54.0569386 3.46710889 53.9544496 3.55784885 53.8905809 3.64018106 53.8838664 3.71410551 53.0638672 4.2266193 53.3461613 4.81473574 52.9378432 4.95083729 52.2304223 5.18776977 51.4574897 7.35202269 51.4574897 7.35202269 51.4574897 7.35202269 51.8960404 7.64607755 50.5232155 9.18694677 49.3889979 10.4555944 49.0546043 12.3761987 49.0546043 12.3761987 49.0546043 12.3761987 49.8023455 13.7456572 49.661211 15.3268568 49.5519824 16.529971 49.5015812 15.6377154 50.0258373 16.5081326 50.3316546 17.020628 50.6643684 18.8034626 50.8659984 18.1094722 51.2541546 16.782019 50.1619372 15.5536966 50.3434171 14.2329662 50.3837491 14.3993222 50.7601362 13.7087034 50.7467073 14.3320938 50.7063803 15.9636962 52.7547019 19.1025604 52.7547019 19.1025604 52.7547019 19.1025604 51.9901401 19.8805461 52.7882943 19.8805461L52.5866525 20.3611154C52.5866525 20.3611154 53.1781304 20.3275096 53.5612454 20.6400481 53.9443553 20.9542732 54.2753824 21.3407495 54.624905 21.3407495L60.5110855 21.3407495C60.5110855 21.3407495 60.9294861 19.5545652 61.2689093 19.2504211 61.6116922 18.9479652 60.5866915 19.2504211 60.2825607 18.9479652 59.9784233 18.6438143 59.7885356 19.2134505 59.6373068 19.517593 59.4843981 19.8217438 59.2945239 20.3527144 58.8391593 20.5039482 58.3837813 20.6568569 57.2848427 20.7324679 57.0579962 20.7324679 56.8294899 20.7324679 56.1439174 19.4335742 56.1439174 19.4335742 55.5373173 18.4522669 55.9893154 17.2289775 56.6782427 16.039319 57.1873883 15.1655471 58.5350152 14.7790774 59.7129195 15.2377917 61.030302 14.1976805 61.3478868 15.3167759 62.5157085 14.8110017 64.0515298 14.145581 63.1945666 16.5770292 64.6782866 17.1903387 65.2916146 15.5536966 63.2769039 14.3220246 64.54218 13.5507601 65.4445165 12.9996076 66.1250477 12.6585062 66.494722 11.9208342 67.0206698 10.8689421 67.2256729 10.101044 67.6323044 9.96325758 68.5699266 9.64566605 68.366605 8.75510378 68.366605 8.75510378 68.366605 8.75510378 69.3647278 9.04579218 70.1376788 8.31821446 69.546201 8.00062963 68.6825099 7.7267366 68.9093548 7.08989715 69.1765216 6.33879617 71.1845162 7.86452976 71.775989 6.63453091 70.5846373 6.11361775 69.3664009 4.98444816 68.6354634 4.72398403 68.1364105 5.26842211 67.8238602 5.04998332 67.1802996 4.54084438 66.0880889 3.67715335 65.9956623 4.49546433 65.3151378 3.90398647 64.7690333 4.99620391 65.590704 4.90883712 65.8410738 5.1843966 66.5434484 5.95230805 65.1336596 4.49377775 65.2697645 6.45304092 65.3033703 6.95883186 64.5522677 7.05461815 63.9943956 5.95230805 63.7036988 5.37931886 61.3865255 5.50030323 61.0353416 4.95083729 61.3562878 4.31231125 64.0851339 2.03883139 68.272517 2.58325604 68.1464914 2.534528 68.0187808 2.49083621 67.8893954 2.44546288 78.9409065 4.09219259 87.9726665 11.5057933 91.4173297 21.3289753 87.6534008 9.34154202 77.3025842.0610913026 63.211362.0610913026M12.4906868 23.9738278L7.8664278 23.9738278 8.55705337 24.7954885 8.55705337 30.8682002C8.55705337 32.2326308 7.65304205 32.8089798 6.30373534 32.8089798 4.95610849 32.8089798 4.04873743 32.2326308 4.04873743 30.8682002L4.04873743 24.7954885 4.74103616 23.9738278.116765394 23.9738278.809064126 24.7954885.809064126 30.9656547C.809064126 33.9919237 2.50284201 35.1597522 6.30373534 35.1597522 10.1046354 35.1597522 11.8000814 33.9919237 11.8000814 30.9656547L11.8000814 24.7954885 12.4906868 23.9738278"/>
    <polyline points="28.538 23.974 24.639 23.974 25.33 24.795 25.33 30.324 19.736 23.974 16.231 23.974 16.923 24.795 16.923 34.125 16.231 34.946 20.131 34.946 19.439 34.125 19.439 28.497 25.379 34.946 27.847 34.946 27.847 24.795 28.538 23.974"/>
    <polyline points="37.524 34.946 36.834 34.125 36.834 24.795 37.524 23.974 32.868 23.974 33.56 24.795 33.56 34.125 32.868 34.946 37.524 34.946"/>
    <polyline points="52.879 23.974 48.964 23.974 49.654 24.795 46.89 30.833 44.225 24.795 44.916 23.974 40.31 23.974 45.425 34.946 47.714 34.946 52.879 23.974"/>
    <polyline points="65.955 34.946 65.955 31.969 65.132 32.659 59.521 32.659 59.521 30.554 63.075 30.554 63.882 31.246 63.882 27.674 63.075 28.365 59.521 28.365 59.521 26.259 65.132 26.259 65.955 26.951 65.955 23.974 55.623 23.974 56.314 24.795 56.314 34.125 55.623 34.946 65.955 34.946"/>
    <path d="M81.6865616 34.946348L78.7073457 30.619512C80.1709099 30.0280341 81.1908698 28.8921434 81.1908698 27.2958333 81.1908698 25.469317 80.0734493 23.9738278 76.9463531 23.9738278L70.1023881 23.9738278 70.7930069 24.7954885 70.7930069 34.1246639 70.1023881 34.946348 74.6930352 34.946348 74.0007482 34.1246639 74.0007482 31.0143827 75.3836542 31.0143827 77.4891041 34.1246639 76.7984913 34.946348 81.6865616 34.946348zM77.9007834 27.5277077C77.9007834 28.3174676 77.1429544 28.9593534 76.0910696 28.9593534L74.0007482 28.9593534 74.0007482 26.2590634 76.4859466 26.2590634C77.2101706 26.2590634 77.9007834 26.6220098 77.9007834 27.5277077L77.9007834 27.5277077zM95.584549 31.740299C95.584549 29.994435 94.1898689 29.0231952 92.1566759 28.3645074 90.8460206 27.9545212 88.9808586 27.6587848 88.9808586 26.7866927 88.9808586 26.359886 89.5017664 26.0624697 90.392335 26.0624697 91.5685582 26.0624697 93.5177449 26.5564864 95.0300362 27.2806977L95.0300362 23.6108697 94.15627 24.4510374C93.2320903 24.0729571 91.6357743 23.6763931 90.5267611 23.6763931 86.7964311 23.6763931 85.5983585 25.3231228 85.5983585 26.818617 85.5983585 28.8602124 86.9476595 29.7490998 89.0648711 30.48844 90.6443846 31.0311848 92.1062684 31.0816112 92.1062684 31.9856225 92.1062684 32.7585786 91.1988851 32.8577078 90.7451995 32.8577078 89.5857727 32.8577078 87.5021661 32.446035 85.6622202 31.2462756L85.6622202 35.3093062 86.5343062 34.3548702C87.3845487 34.6825376 89.3169206 35.2437643 90.896428 35.2437643 94.1394613 35.2437643 95.584549 33.8121321 95.584549 31.740299M112.001345 34.946348L106.590681 23.9738278 102.893962 23.9738278 103.297246 24.7954885 98.4074894 34.946348 102.440283 34.946348 101.75135 34.1246639 102.289048 32.9736442 107.514866 32.9736442 108.052578 34.1246639 107.363632 34.946348 112.001345 34.946348zM106.708317 30.9992672L103.078802 30.9992672 104.893556 27.0672952 106.708317 30.9992672 106.708317 30.9992672z"/>
    <polyline points="124.99 34.946 124.99 31.969 124.167 32.659 118.891 32.659 118.891 24.795 119.58 23.974 114.992 23.974 115.681 24.795 115.681 34.125 114.992 34.946 124.99 34.946"/>
    <path d="M122.066496,25.5398867 C122.066496,26.301077 122.688218,26.9160714 123.444361,26.9160714 C124.20051,26.9160714 124.822232,26.301077 124.822232,25.5398867 C124.822232,24.7770166 124.20051,24.1603423 123.444361,24.1603423 C122.688218,24.1603423 122.066496,24.7770166 122.066496,25.5398867 Z M121.915267,25.5398867 C121.915267,24.699719 122.604206,24.0191877 123.444361,24.0191877 C124.284528,24.0191877 124.956664,24.699719 124.956664,25.5398867 C124.956664,26.3800428 124.284528,27.0588924 123.444361,27.0588924 C122.604206,27.0588924 121.915267,26.3800428 121.915267,25.5398867 L121.915267,25.5398867 Z"/>
    <path d="M124.015677,24.9450491 C123.864448,24.815657 123.679608,24.756848 123.494774,24.756848 C123.041082,24.756848 122.70502,25.1046773 122.70502,25.544928 C122.70502,25.9851721 123.041082,26.336361 123.477978,26.336361 C123.696417,26.336361 123.881257,26.26075 124.032479,26.1263116 L124.032479,25.9263631 C123.898052,26.094394 123.696417,26.1985696 123.477978,26.1985696 C123.125101,26.1985696 122.856249,25.8877177 122.856249,25.544928 C122.856249,25.2004585 123.125101,24.8946412 123.477978,24.8946412 C123.696417,24.8946412 123.881257,24.9836946 124.015677,25.1416496 L124.015677,24.9450491"/>
  </g>
</svg>
